<svg xmlns="http://www.w3.org/2000/svg" width="1200" height="675" viewBox="0 0 1200 675"><rect width="100%" height="100%" fill="#f2f2f2"/><path fill="#cccccc" d="M331.415 261.61h19.9v121.46h-11.59q-2.69 0-4.49-.88-1.81-.88-3.49-2.98l-63.42-80.98q.51 5.54.51 10.25v74.59h-19.91V261.61h11.84q1.43 0 2.48.12 1.05.13 1.85.51.8.37 1.55 1.09.76.71 1.68 1.89l63.67 81.31q-.25-2.94-.42-5.8-.16-2.85-.16-5.29zm81.81 33.93q9.58 0 17.43 3.11 7.86 3.11 13.44 8.82 5.59 5.71 8.61 13.94 3.03 8.24 3.03 18.4 0 10.25-3.03 18.48-3.02 8.23-8.61 14.03-5.58 5.79-13.44 8.9-7.85 3.11-17.43 3.11-9.66 0-17.55-3.11-7.9-3.11-13.49-8.9-5.58-5.8-8.65-14.03-3.06-8.23-3.06-18.48 0-10.16 3.06-18.4 3.07-8.23 8.65-13.94 5.59-5.71 13.49-8.82 7.89-3.11 17.55-3.11m0 72.83q10.75 0 15.92-7.22 5.17-7.23 5.17-21.17 0-13.95-5.17-21.25-5.17-7.31-15.92-7.31-10.92 0-16.17 7.35t-5.25 21.21 5.25 21.12q5.25 7.27 16.17 7.27m125.16-106.76v121.46h-22.68V261.61zm44.61 121.46h-20.75v-86.18h12.68q4.03 0 5.29 3.78l1.35 6.38q2.27-2.52 4.74-4.62 2.48-2.1 5.3-3.61 2.81-1.51 6.04-2.4 3.24-.88 7.1-.88 8.15 0 13.4 4.41t7.85 11.72q2.02-4.28 5.04-7.35 3.03-3.07 6.64-5t7.69-2.85q4.07-.93 8.19-.93 7.14 0 12.68 2.19 5.54 2.18 9.32 6.38t5.76 10.25q1.97 6.05 1.97 13.86v54.85h-20.75v-54.85q0-8.23-3.61-12.39t-10.58-4.16q-3.19 0-5.92 1.09t-4.79 3.15-3.24 5.17q-1.17 3.11-1.17 7.14v54.85h-20.83v-54.85q0-8.65-3.49-12.6t-10.21-3.95q-4.53 0-8.44 2.23-3.9 2.22-7.26 6.09zm165.48-22.26v-14.53q-8.99.42-15.12 1.55-6.14 1.14-9.83 2.9-3.7 1.76-5.29 4.12-1.6 2.35-1.6 5.12 0 5.46 3.23 7.81 3.24 2.35 8.45 2.35 6.38 0 11.04-2.31t9.12-7.01m-43.85-45.28-3.7-6.63q14.87-13.61 35.79-13.61 7.56 0 13.52 2.48t10.08 6.89 6.26 10.54 2.14 13.44v54.43h-9.41q-2.94 0-4.53-.88-1.6-.88-2.52-3.57l-1.85-6.22q-3.28 2.94-6.39 5.17-3.1 2.22-6.46 3.74-3.36 1.51-7.19 2.31-3.82.79-8.44.79-5.46 0-10.08-1.47t-7.98-4.41-5.21-7.3q-1.84-4.37-1.84-10.17 0-3.27 1.09-6.51 1.09-3.23 3.57-6.17t6.42-5.55q3.95-2.6 9.71-4.53 5.75-1.93 13.39-3.15 7.65-1.22 17.48-1.47v-5.04q0-8.65-3.7-12.81t-10.67-4.16q-5.04 0-8.36 1.18-3.31 1.17-5.83 2.64t-4.58 2.65q-2.06 1.17-4.58 1.17-2.18 0-3.7-1.13-1.51-1.13-2.43-2.65m115.08 22.35q3.86 0 6.72-1.05 2.85-1.05 4.74-2.9t2.86-4.45q.97-2.61.97-5.71 0-6.39-3.83-10.13-3.82-3.73-11.46-3.73-7.65 0-11.47 3.73-3.82 3.74-3.82 10.13 0 3.02.97 5.62.96 2.61 2.85 4.5t4.79 2.94 6.68 1.05m23.43 49.05q0-2.52-1.51-4.11-1.51-1.6-4.11-2.48-2.61-.88-6.09-1.3-3.49-.42-7.4-.63-3.9-.21-8.06-.38t-8.11-.67q-3.44 1.93-5.58 4.53-2.14 2.61-2.14 6.05 0 2.27 1.13 4.24 1.13 1.98 3.61 3.41 2.48 1.42 6.43 2.22t9.66.8q5.79 0 9.99-.88t6.93-2.44q2.73-1.55 3.99-3.69 1.26-2.15 1.26-4.67m-4.11-87.1h24.78v7.72q0 3.7-4.45 4.54l-7.73 1.43q1.76 4.45 1.76 9.74 0 6.39-2.56 11.55-2.56 5.17-7.1 8.78-4.53 3.61-10.71 5.59-6.17 1.97-13.31 1.97-2.52 0-4.87-.25-2.36-.25-4.62-.67-4.04 2.43-4.04 5.46 0 2.6 2.4 3.82 2.39 1.22 6.34 1.72t8.99.63 10.33.55 10.33 1.47 8.99 3.31q3.95 2.27 6.34 6.18 2.4 3.9 2.4 10.04 0 5.71-2.82 11.08-2.81 5.38-8.15 9.58-5.33 4.2-13.1 6.76t-17.68 2.56q-9.75 0-16.97-1.89t-12.01-5.04-7.14-7.26q-2.35-4.12-2.35-8.57 0-6.05 3.65-10.12 3.65-4.08 10.04-6.51-3.45-1.77-5.46-4.71-2.02-2.94-2.02-7.72 0-1.94.72-3.99.71-2.06 2.1-4.08 1.38-2.01 3.48-3.82t4.96-3.23q-6.55-3.53-10.29-9.41t-3.74-13.78q0-6.38 2.56-11.55 2.56-5.16 7.14-8.82 4.58-3.65 10.84-5.58 6.26-1.94 13.65-1.94 5.54 0 10.41 1.14 4.88 1.13 8.91 3.32m54.26 30.24h39.15q0-4.04-1.14-7.61-1.13-3.57-3.4-6.25-2.27-2.69-5.75-4.25-3.49-1.55-8.11-1.55-8.99 0-14.15 5.12-5.17 5.13-6.6 14.54m52.92 12.51h-53.34q.51 6.64 2.35 11.47 1.85 4.83 4.88 7.98 3.02 3.15 7.18 4.7 4.16 1.56 9.2 1.56t8.69-1.18 6.38-2.6q2.73-1.43 4.79-2.61 2.06-1.17 3.99-1.17 2.61 0 3.87 1.93l5.96 7.56q-3.44 4.03-7.73 6.76-4.28 2.73-8.94 4.37-4.67 1.64-9.5 2.31t-9.36.67q-8.99 0-16.72-2.98t-13.44-8.82-8.99-14.45q-3.27-8.61-3.27-19.95 0-8.82 2.85-16.59 2.86-7.77 8.19-13.52 5.34-5.76 13.02-9.12 7.69-3.36 17.35-3.36 8.15 0 15.04 2.61 6.88 2.6 11.84 7.6t7.77 12.26q2.81 7.27 2.81 16.59 0 4.71-1 6.34-1.01 1.64-3.87 1.64"/></svg>