<svg width="88" height="88" viewBox="0 0 88 88" fill="none" xmlns="http://www.w3.org/2000/svg">
<path d="M19.8633 64.587H3.14551V87.9919H19.8633V64.587Z" fill="#465945"/>
<path d="M53.1763 14.442C52.2897 15.629 51.8047 17.0672 51.8047 18.5708C51.8047 20.427 52.5231 22.1496 53.8275 23.4524C55.132 24.7566 56.8707 25.475 58.7089 25.475C60.5488 25.475 62.2877 24.7566 63.5905 23.4703C66.0492 21.0116 66.2662 17.1504 64.2254 14.442H53.1763Z" fill="#465945"/>
<path d="M49.9487 40.5048V88H66.6665V40.805C64.1425 41.7081 61.4522 42.1766 58.7092 42.1766C55.6677 42.1766 52.6913 41.592 49.9487 40.5048Z" fill="#465945"/>
<path d="M83.34 37.4354L74.32 28.649C76.244 25.6759 77.2849 22.2099 77.2849 18.5775C77.2849 13.6079 75.3535 8.9418 71.8483 5.43658C68.3431 1.93136 63.677 0 58.7076 0C53.738 0 49.0704 1.93136 45.5667 5.43658C42.0598 8.9418 40.1301 13.6077 40.1301 18.5775C40.1301 23.547 42.0599 28.2145 45.5652 31.7197C49.0704 35.2249 53.738 37.1561 58.7076 37.1561C62.3408 37.1561 65.8067 36.1145 68.7813 34.1882L77.5638 43.2068C79.2014 45.1804 81.6177 45.298 83.4853 43.4304C85.3546 41.5644 85.3138 39.068 83.34 37.4354ZM58.7076 28.5476C56.0449 28.5476 53.5403 27.5093 51.6564 25.6267C49.774 23.7445 48.7373 21.24 48.7373 18.5775C48.7373 15.9146 49.774 13.4119 51.6564 11.5294C53.5403 9.64717 56.0432 8.60888 58.7076 8.60888C61.3686 8.60888 63.8731 9.64717 65.7555 11.5294C69.6426 15.4165 69.6426 21.7412 65.7555 25.6285C63.8729 27.5108 61.3703 28.5476 58.7076 28.5476Z" fill="#465945"/>
<path d="M43.2615 51.2209H26.5437V88H43.2615V51.2209Z" fill="#465945"/>
</svg>
