<svg width="120" height="120" viewBox="0 0 120 120" fill="none" xmlns="http://www.w3.org/2000/svg">
<g clip-path="url(#clip0_207_1508)">
<path d="M38.6469 21.0448C41.8988 21.0448 44.5358 18.4097 44.5358 15.154V5.88703C44.5358 2.63719 41.8988 0 38.6469 0C35.3949 0 32.7559 2.63719 32.7559 5.88703V15.1537C32.7559 18.4097 35.3949 21.0448 38.6469 21.0448Z" fill="#465945"/>
<path d="M82.0744 21.0448C85.3244 21.0448 87.9633 18.4097 87.9633 15.154V5.88703C87.9633 2.63719 85.3242 0 82.0744 0C78.8224 0 76.1833 2.63719 76.1833 5.88703V15.1537C76.1831 18.4097 78.8224 21.0448 82.0744 21.0448Z" fill="#465945"/>
<path d="M102.48 8.39221H93.1371V15.1537C93.1371 21.2568 88.1756 26.2204 82.0744 26.2204C75.9731 26.2204 71.0098 21.2568 71.0098 15.1537V8.39221H49.7095V15.1537C49.7095 21.2568 44.7459 26.2204 38.647 26.2204C32.5458 26.2204 27.5822 21.2568 27.5822 15.1537V8.39221H17.5195C8.3843 8.39221 0.978516 15.7982 0.978516 24.9332V103.459C0.978516 112.594 8.3843 120 17.5195 120H102.48C111.615 120 119.021 112.594 119.021 103.459V24.9332C119.021 15.7982 111.615 8.39221 102.48 8.39221ZM110.973 103.459C110.973 108.141 107.163 111.952 102.48 111.952H17.5195C12.837 111.952 9.02695 108.141 9.02695 103.459V35.3868H110.973V103.459Z" fill="#465945"/>
<path d="M55.9029 89.6512H40.9988V104.555H55.9029V89.6512Z" fill="#465945"/>
<path d="M55.9029 66.5531H40.9988V81.4572H55.9029V66.5531Z" fill="#465945"/>
<path d="M32.8049 89.6512H17.9028V104.555H32.8049V89.6512Z" fill="#465945"/>
<path d="M32.8049 66.5531H17.9028V81.4572H32.8049V66.5531Z" fill="#465945"/>
<path d="M102.097 43.4572H87.1951V58.3592H102.097V43.4572Z" fill="#465945"/>
<path d="M79.0011 43.4572H64.0969V58.3592H79.0011V43.4572Z" fill="#465945"/>
<path d="M82.0408 68.7225L77.6079 65.2758L69.5358 75.6588L64.7433 71.8251L61.2358 76.2051L70.4712 83.5952L82.0408 68.7225Z" fill="#465945"/>
<path d="M102.097 66.5531H87.1951V81.4572H102.097V66.5531Z" fill="#465945"/>
<path d="M79.0011 89.6512H64.0969V104.555H79.0011V89.6512Z" fill="#465945"/>
<path d="M55.9029 43.4572H40.9988V58.3592H55.9029V43.4572Z" fill="#465945"/>
</g>
<defs>
<clipPath id="clip0_207_1508">
<rect width="120" height="120" fill="white"/>
</clipPath>
</defs>
</svg>
