<?xml version="1.0" encoding="UTF-8"?>
<svg xmlns="http://www.w3.org/2000/svg" version="1.1" viewBox="0 0 425.2 85.2">
  <defs>
    <style>
      .cls-1 {
        fill: #f03748;
      }

      .cls-2 {
        fill: #13202f;
      }
    </style>
  </defs>
  <!-- Generator: Adobe Illustrator 28.6.0, SVG Export Plug-In . SVG Version: 1.2.0 Build 709)  -->
  <g>
    <g id="_レイヤー_1" data-name="レイヤー_1">
      <path class="cls-2" d="M67,5c-6.7-6.7-17.7-6.7-24.4,0-3,3.1-4.8,7.2-5,11.5v16.4c0,.9.7,1.5,1.5,1.5h14.9c5.2,0,9.4-1.5,13-5,6.7-6.8,6.7-17.7,0-24.4Z"/>
      <path class="cls-1" d="M5.1,18.2c-6.7,6.7-6.8,17.6,0,24.4,3.1,3.1,7.2,4.9,11.5,5h16.4c.9,0,1.5-.7,1.5-1.5h0v-14.9c0-5.2-1.5-9.4-5-12.9-6.7-6.7-17.7-6.7-24.4,0Z"/>
      <path class="cls-1" d="M18.2,80.1c6.7,6.7,17.6,6.7,24.4,0,3.1-3.1,4.9-7.2,5-11.5v-16.3c0-.9-.7-1.5-1.5-1.5h-14.9c-5.2,0-9.4,1.5-12.9,5-6.7,6.7-6.7,17.7,0,24.4,0,0,0,0,0,0Z"/>
      <path class="cls-1" d="M80.1,67c6.7-6.7,6.7-17.6,0-24.4-3.1-3.1-7.2-4.9-11.6-5h-16.4c-.8,0-1.5.7-1.5,1.5,0,0,0,0,0,0v14.9c0,5.2,1.5,9.4,5,12.9,6.7,6.8,17.7,6.8,24.4,0Z"/>
      <path class="cls-2" d="M261.2,57.8c-2,1.2-4.4,2.7-7.3,2.7s-5.3-1.5-5.3-5.8v-12.5h12.5l-2.8-8.4h-9.7v-8.6h-8.9v8.6h-6.3v8.4h6.3v13.2c0,8.8,4.3,13.5,12.7,13.5,4-.1,8-1.3,11.4-3.5l-2.6-7.6Z"/>
      <path class="cls-2" d="M305.6,58.3l7.3-24.4h9.5l-11.5,34.5h-10.4l-7.5-22.9-7.5,22.9h-10.3l-11.6-34.5h9.7l7.4,24.3,7.6-24.3h9.6l7.6,24.4Z"/>
      <path class="cls-2" d="M401.2,45.9h3.2l9.6-12h11.2l-13.4,15.9,13.4,18.6h-11.2l-9.8-14.4h-3.1v14.4h-9.2V16.6h9.1v29.3Z"/>
      <path class="cls-2" d="M172.3,33.3c-3.7,0-7.3,1.2-9.7,4.5v-21.2h-8.9v51.8h8.9v-20c.1-3.8,3.3-6.7,7.1-6.6,0,0,0,0,0,0,4.2,0,6.6,2.7,6.6,7.6v19h9.1v-21.9c0-7.9-5.4-13.2-13.1-13.2Z"/>
      <path class="cls-2" d="M218.5,33.9v2.1c-8.4-5.2-19.4-2.6-24.6,5.8-5.2,8.4-2.6,19.4,5.8,24.6,5.7,3.5,13,3.5,18.7,0v2.1h8.9v-34.5h-8.9ZM209.2,60.5c-5.2,0-9.3-4.2-9.3-9.3s4.2-9.3,9.3-9.3,9.3,4.2,9.3,9.3h0c0,5.2-4.2,9.3-9.3,9.3s0,0,0,0Z"/>
      <path class="cls-2" d="M386,34c-1.1-.2-2.2-.4-3.4-.4-4.1,0-7.3,1.4-9.4,4.6v-4.3h-9v34.5h9v-18.4c0-5,3-7.6,7.3-7.6,1.9,0,3.8.4,5.5,1.1h0v-9.5Z"/>
      <path class="cls-2" d="M340.3,33.2c-9.9,0-17.8,8-17.8,17.9,0,9.9,8,17.8,17.9,17.8,9.9,0,17.8-8,17.8-17.9,0,0,0,0,0,0,0-9.8-8-17.8-17.9-17.8ZM340.3,60.4c-5.2,0-9.3-4.2-9.3-9.3,0-5.2,4.2-9.3,9.3-9.3,5.1,0,9.3,4.2,9.3,9.3,0,5.2-4.1,9.4-9.3,9.4,0,0,0,0,0,0Z"/>
      <path class="cls-2" d="M140.9,53.3c-5.9,7.3-16.6,8.4-23.9,2.4s-8.4-16.6-2.4-23.9,16.6-8.4,23.9-2.4c.8.7,1.6,1.5,2.3,2.3l6.9-5.7c-9.1-11-25.4-12.6-36.5-3.5-11,9.1-12.6,25.4-3.5,36.5,9.1,11,25.4,12.6,36.5,3.5,1.3-1,2.4-2.2,3.5-3.5l-6.8-5.7Z"/>
    </g>
  </g>
</svg>