<?xml version="1.0" encoding="UTF-8"?>
<svg id="_レイヤー_1" data-name="レイヤー 1" xmlns="http://www.w3.org/2000/svg" version="1.1" viewBox="0 0 623.6 623.6">
  <defs>
    <style>
      .cls-1 {
        fill: #e1e1d2;
      }

      .cls-1, .cls-2 {
        stroke-width: 0px;
      }

      .cls-2 {
        fill: ivory;
      }
    </style>
  </defs>
  <path class="cls-1" d="M290.1,12.5l1.5-9.1,8-.4,2.5,8.9,31.4,599.2-1.1,6.3-.5,2.8-8,.4-.6-2.2-1.9-6.7L290.1,12.5Z"/>
  <path class="cls-1" d="M274.5,14.1l1-9.2,8-.8,2.9,8.7,62.7,596.7-.7,6.3-.3,2.8-8,.8-.7-2.2-2.2-6.6L274.5,14.1Z"/>
  <path class="cls-1" d="M259,16.4l.6-9.2,7.9-1.3,3.4,8.6,93.9,592.6-.4,6.4-.2,2.8-7.9,1.3-.8-2.1-2.5-6.4L259,16.4Z"/>
  <path class="cls-1" d="M243.6,19.6v-9.2c0,0,7.9-1.7,7.9-1.7l3.8,8.4,124.7,586.9v6.4c0,0,0,2.8,0,2.8l-7.8,1.7-1-2.1-2.9-6.3L243.6,19.6Z"/>
  <path class="cls-1" d="M228.4,23.6l-.4-9.2,7.7-2.1,4.3,8.2,155.3,579.6.3,6.4v2.8c.1,0-7.6,2.1-7.6,2.1l-1.1-2-3.2-6.1L228.4,23.6Z"/>
  <path class="cls-1" d="M213.4,28.3l-.9-9.2,7.6-2.5,4.7,7.9,185.4,570.6.6,6.4.3,2.8-7.6,2.5-1.2-2-3.5-6L213.4,28.3Z"/>
  <path class="cls-1" d="M198.7,33.9l-1.4-9.1,7.5-2.9,5.1,7.7,215,560.1,1.4,9.1-7.5,2.9-1.3-1.9-3.8-5.8L198.7,33.9Z"/>
  <path class="cls-1" d="M184.3,40.2l-1.8-9,7.3-3.3,5.5,7.4,244,548.1,1.8,9-7.3,3.3-1.4-1.9-4.1-5.6L184.3,40.2Z"/>
  <path class="cls-1" d="M170.3,47.2l-2.3-8.9,7.1-3.6,5.9,7.1,272.4,534.6,2.3,8.9-7.1,3.6-1.5-1.8-4.4-5.3L170.3,47.2Z"/>
  <path class="cls-1" d="M156.6,55l-2.8-8.8,6.9-4,6.2,6.8,300,519.6,2.8,8.8-6.9,4-1.6-1.7-4.7-5.1L156.6,55Z"/>
  <path class="cls-1" d="M143.4,63.5l-3.2-8.6,6.7-4.4,6.6,6.5,326.8,503.2,3.2,8.6-6.7,4.4-1.6-1.6-4.9-4.8L143.4,63.5Z"/>
  <path class="cls-1" d="M130.6,72.6l-3.7-8.5,6.5-4.7,6.9,6.1,352.7,485.4,3.7,8.5-6.5,4.7-1.7-1.5-5.2-4.6L130.6,72.6Z"/>
  <path class="cls-1" d="M118.4,82.4l-4.1-8.3,6.2-5,7.2,5.7,377.6,466.3,4.1,8.3-6.2,5-1.8-1.4-5.4-4.3L118.4,82.4Z"/>
  <path class="cls-1" d="M106.6,92.9l-4.5-8,5.9-5.4,7.5,5.3,401.5,445.9,4.5,8-5.9,5.4-1.9-1.3-5.6-4L106.6,92.9Z"/>
  <path class="cls-1" d="M95.4,103.9l-4.9-7.8,5.7-5.7,7.8,4.9,424.3,424.3,5,7.8-5.7,5.7-1.9-1.2-5.8-3.7L95.4,103.9Z"/>
  <path class="cls-1" d="M84.9,115.5l-5.3-7.5,5.4-5.9,8,4.5,445.9,401.5,5.4,7.5-5.4,5.9-2-1.1-6-3.4L84.9,115.5Z"/>
  <path class="cls-1" d="M74.9,127.7l-5.7-7.2,5-6.2,8.3,4.1,466.3,377.6,5.7,7.2-5,6.2-2.1-1-6.2-3.1L74.9,127.7Z"/>
  <path class="cls-1" d="M65.6,140.3l-6.1-6.9,4.7-6.5,8.5,3.7,485.4,352.7,6.1,6.9-4.7,6.5-2.1-.9-6.3-2.8L65.6,140.3Z"/>
  <path class="cls-1" d="M56.9,153.5l-6.5-6.6,4.4-6.7,8.6,3.2,503.2,326.8,6.5,6.6-4.4,6.7-2.2-.8-6.5-2.4L56.9,153.5Z"/>
  <path class="cls-1" d="M49,167l-6.8-6.2,4-6.9,8.8,2.8,519.6,300,6.8,6.2-4,6.9-2.2-.7-6.6-2.1L49,167Z"/>
  <path class="cls-1" d="M41.8,181l-7.1-5.9,3.6-7.1,8.9,2.3,534.6,272.4,7.1,5.9-3.6,7.1-2.2-.6-6.7-1.7L41.8,181Z"/>
  <path class="cls-1" d="M35.3,195.3l-7.4-5.5,3.3-7.3,9,1.8,548.1,244,7.4,5.5-3.3,7.3-2.3-.5-6.8-1.4L35.3,195.3Z"/>
  <path class="cls-1" d="M29.6,209.9l-7.7-5.1,2.9-7.5,9.1,1.4,560.1,215,7.7,5.1-2.9,7.5-2.3-.3-6.8-1L29.6,209.9Z"/>
  <path class="cls-1" d="M24.6,224.8l-7.9-4.7,2.5-7.6,9.2.9,570.6,185.4,7.9,4.7-2.5,7.6-2.3-.2-6.9-.7L24.6,224.8Z"/>
  <path class="cls-1" d="M20.5,240l-8.2-4.3,2.1-7.7,9.2.4,579.6,155.3,8.2,4.3-2.1,7.7h-2.3c0,0-6.9-.4-6.9-.4L20.5,240Z"/>
  <path class="cls-1" d="M17.1,255.3l-8.4-3.8,1.7-7.8h9.2c0,0,586.9,124.7,586.9,124.7l8.4,3.8-1.7,7.8h-2.3s-6.9,0-6.9,0L17.1,255.3Z"/>
  <path class="cls-1" d="M14.6,270.8l-8.6-3.4,1.3-7.9,9.2-.6,592.6,93.9,8.6,3.4-1.3,7.9h-2.3c0,.1-6.9.6-6.9.6L14.6,270.8Z"/>
  <path class="cls-1" d="M12.8,286.4l-8.7-2.9.8-8,9.2-1,596.7,62.7,8.7,2.9-.8,8-2.3.3-6.9.8L12.8,286.4Z"/>
  <path class="cls-1" d="M11.9,302.1l-8.9-2.5.4-8,9.1-1.5,599.2,31.4,8.9,2.5-.4,8-2.3.4-6.8,1.1L11.9,302.1Z"/>
  <path class="cls-1" d="M11.8,317.8l-9-2v-8l9-2h600l9,2v8l-2.2.5-6.8,1.5H11.8Z"/>
  <path class="cls-1" d="M12.5,333.5l-9.1-1.5-.4-8,8.9-2.5,599.2-31.4,9.1,1.5.4,8-2.2.6-6.7,1.9L12.5,333.5Z"/>
  <path class="cls-1" d="M14.1,349.1l-9.2-1-.8-8,8.7-2.9,596.7-62.7,9.2,1,.8,8-2.2.7-6.6,2.2L14.1,349.1Z"/>
  <path class="cls-1" d="M16.4,364.7l-9.2-.6-1.3-7.9,8.6-3.4,592.6-93.9,9.2.6,1.3,7.9-2.1.8-6.4,2.5L16.4,364.7Z"/>
  <path class="cls-1" d="M19.6,380.1h-9.2c0,0-1.7-7.9-1.7-7.9l8.4-3.8,586.9-124.7h9.2c0,0,1.7,7.9,1.7,7.9l-2.1,1-6.3,2.9L19.6,380.1Z"/>
  <path class="cls-1" d="M23.6,395.3l-9.2.4-2.1-7.7,8.2-4.3,579.6-155.3,9.2-.4,2.1,7.7-2,1.1-6.1,3.2L23.6,395.3Z"/>
  <path class="cls-1" d="M28.3,410.2l-9.2.9-2.5-7.6,7.9-4.7,570.6-185.4,9.2-.9,2.5,7.6-2,1.2-6,3.5L28.3,410.2Z"/>
  <path class="cls-1" d="M33.9,424.9l-9.1,1.4-2.9-7.5,7.7-5.1,560.1-215,9.1-1.4,2.9,7.5-1.9,1.3-5.8,3.8L33.9,424.9Z"/>
  <path class="cls-1" d="M40.2,439.3l-9,1.8-3.3-7.3,7.4-5.5,548.1-244,9-1.8,3.3,7.3-1.9,1.4-5.6,4.1L40.2,439.3Z"/>
  <path class="cls-1" d="M47.2,453.4l-8.9,2.3-3.6-7.1,7.1-5.9L576.4,170.3l8.9-2.3,3.6,7.1-1.8,1.5-5.3,4.4L47.2,453.4Z"/>
  <path class="cls-1" d="M55,467l-8.8,2.8-4-6.9,6.8-6.2L568.6,156.6l8.8-2.8,4,6.9-1.7,1.6-5.1,4.7L55,467Z"/>
  <path class="cls-1" d="M63.5,480.2l-8.6,3.2-4.4-6.7,6.5-6.6,503.2-326.8,8.6-3.2,4.4,6.7-1.6,1.6-4.8,4.9L63.5,480.2Z"/>
  <path class="cls-1" d="M72.6,493l-8.5,3.7-4.7-6.5,6.1-6.9,485.4-352.7,8.5-3.7,4.7,6.5-1.5,1.7-4.6,5.2L72.6,493Z"/>
  <path class="cls-1" d="M82.4,505.3l-8.3,4.1-5-6.2,5.7-7.2L541.2,118.4l8.3-4.1,5,6.2-1.4,1.8-4.3,5.4L82.4,505.3Z"/>
  <path class="cls-1" d="M92.9,517l-8,4.5-5.4-5.9,5.3-7.5L530.7,106.6l8-4.5,5.4,5.9-1.3,1.9-4,5.6L92.9,517Z"/>
  <path class="cls-1" d="M103.9,528.2l-7.8,4.9-5.7-5.7,5-7.8L519.7,95.4l7.8-4.9,5.7,5.7-1.2,1.9-3.7,5.8L103.9,528.2Z"/>
  <path class="cls-1" d="M115.5,538.8l-7.5,5.4-5.9-5.4,4.5-8L508.1,84.9l7.5-5.3,5.9,5.4-1.1,2-3.4,6L115.5,538.8Z"/>
  <path class="cls-1" d="M127.7,548.7l-7.2,5.7-6.2-5,4.1-8.3L495.9,74.9l7.2-5.7,6.2,5-1,2.1-3.1,6.2L127.7,548.7Z"/>
  <path class="cls-1" d="M140.3,558l-6.9,6.1-6.5-4.7,3.7-8.5L483.3,65.6l6.9-6.1,6.5,4.7-.9,2.1-2.8,6.3-352.7,485.4Z"/>
  <path class="cls-1" d="M153.5,566.7l-6.6,6.5-6.7-4.4,3.2-8.6L470.2,56.9l6.6-6.5,6.7,4.4-.8,2.2-2.4,6.5-326.8,503.2Z"/>
  <path class="cls-1" d="M167,574.6l-6.2,6.8-6.9-4,2.8-8.8L456.6,49l6.2-6.8,6.9,4-.7,2.2-2.1,6.6L167,574.6Z"/>
  <path class="cls-1" d="M181,581.8l-5.9,7.1-7.1-3.6,2.3-8.9L442.7,41.8l5.9-7.1,7.1,3.6-.6,2.2-1.7,6.7L181,581.8Z"/>
  <path class="cls-1" d="M195.3,588.3l-5.5,7.4-7.3-3.3,1.8-9L428.3,35.3l5.5-7.4,7.3,3.3-.5,2.3-1.4,6.8-244,548.1Z"/>
  <path class="cls-1" d="M209.9,594l-5.1,7.7-7.5-2.9,1.4-9.1L413.7,29.6l5.1-7.7,7.5,2.9-.3,2.3-1,6.8-215,560.1Z"/>
  <path class="cls-1" d="M224.8,599l-4.7,7.9-7.6-2.5.9-9.2L398.8,24.6l4.7-7.9,7.6,2.5-.2,2.3-.7,6.9-185.4,570.6Z"/>
  <path class="cls-1" d="M240,603.1l-4.3,8.2-7.7-2.1.4-9.2L383.7,20.5l4.3-8.2,7.7,2.1v2.3c-.1,0-.4,6.9-.4,6.9l-155.3,579.6Z"/>
  <path class="cls-1" d="M255.3,606.5l-3.8,8.4-7.8-1.7v-9.2c0,0,124.7-586.9,124.7-586.9l3.8-8.4,7.8,1.7v2.3s0,6.9,0,6.9l-124.7,586.9Z"/>
  <path class="cls-1" d="M270.8,609.1l-3.4,8.6-7.9-1.3-.6-9.2L352.8,14.6l3.4-8.6,7.9,1.3v2.3c.1,0,.6,6.9.6,6.9l-93.9,592.6Z"/>
  <path class="cls-1" d="M286.4,610.8l-2.9,8.7-8-.8-1-9.2L337.2,12.8l2.9-8.7,8,.8.3,2.3.8,6.9-62.7,596.7Z"/>
  <path class="cls-1" d="M302.1,611.7l-2.5,8.9-8-.4-1.5-9.1L321.5,11.9l2.5-8.9,8,.4.4,2.3,1.1,6.8-31.4,599.2Z"/>
  <path class="cls-1" d="M317.8,611.8l-2,9h-8l-2-9V11.8l2-9h8l.5,2.2,1.5,6.8v600Z"/>
  <path class="cls-1" d="M611.8,311.8c0,165.7-134.3,300-300,300S11.8,477.5,11.8,311.8,146.1,11.8,311.8,11.8s300,134.3,300,300ZM41.8,311.8c0,149.1,120.9,270,270,270s270-120.9,270-270S460.9,41.8,311.8,41.8,41.8,162.7,41.8,311.8Z"/>
  <circle class="cls-2" cx="311.8" cy="311.8" r="270"/>
  <path class="cls-1" d="M307.8,41.8h8l-2,12h-4l-2-12Z"/>
  <path class="cls-1" d="M315.8,581.8h-8l2-12h4l2,12Z"/>
  <path class="cls-1" d="M41.8,315.8v-8l12,2v4l-12,2Z"/>
  <path class="cls-1" d="M581.8,307.8v8l-12-2v-4l12-2Z"/>
  <path class="cls-1" d="M321.9,42l8,.4-2.6,11.9-4-.2-1.4-12.1Z"/>
  <path class="cls-1" d="M301.7,581.7l-8-.4,2.6-11.9,4,.2,1.4,12.1Z"/>
  <path class="cls-1" d="M42,301.7l.4-8,11.9,2.6-.2,4-12.1,1.4Z"/>
  <path class="cls-1" d="M581.6,321.9l-.4,8-11.9-2.6.2-4,12.1-1.4Z"/>
  <path class="cls-1" d="M336.1,42.9l8,.8-3.2,11.7-4-.4-.7-12.1Z"/>
  <path class="cls-1" d="M287.6,580.8l-8-.8,3.2-11.7,4,.4.7,12.1Z"/>
  <path class="cls-1" d="M42.9,287.6l.8-8,11.7,3.2-.4,4-12.1.7Z"/>
  <path class="cls-1" d="M580.7,336.1l-.8,8-11.7-3.2.4-4,12.1-.7Z"/>
  <path class="cls-1" d="M350.1,44.5l7.9,1.3-3.9,11.5-4-.6v-12.2Z"/>
  <path class="cls-1" d="M273.5,579.1l-7.9-1.3,3.9-11.5,4,.6v12.2Z"/>
  <path class="cls-1" d="M44.5,273.5l1.3-7.9,11.5,3.9-.6,4h-12.2Z"/>
  <path class="cls-1" d="M579.1,350.1l-1.3,7.9-11.5-3.9.6-4h12.2Z"/>
  <path class="cls-1" d="M364,46.9l7.8,1.7-4.5,11.3-3.9-.8.5-12.2Z"/>
  <path class="cls-1" d="M259.6,576.7l-7.8-1.7,4.5-11.3,3.9.8-.5,12.2Z"/>
  <path class="cls-1" d="M46.9,259.6l1.7-7.8,11.3,4.5-.8,3.9-12.2-.5Z"/>
  <path class="cls-1" d="M576.7,364l-1.7,7.8-11.3-4.5.8-3.9,12.2.5Z"/>
  <path class="cls-1" d="M377.8,50l7.7,2.1-5,11.1-3.9-1,1.2-12.1Z"/>
  <path class="cls-1" d="M245.8,573.6l-7.7-2.1,5-11.1,3.9,1-1.2,12.1Z"/>
  <path class="cls-1" d="M50,245.8l2.1-7.7,11.1,5-1,3.9-12.1-1.2Z"/>
  <path class="cls-1" d="M573.6,377.8l-2.1,7.7-11.1-5,1-3.9,12.1,1.2Z"/>
  <path class="cls-1" d="M391.4,53.8l7.6,2.5-5.6,10.8-3.8-1.2,1.8-12Z"/>
  <path class="cls-1" d="M232.2,569.8l-7.6-2.5,5.6-10.8,3.8,1.2-1.8,12Z"/>
  <path class="cls-1" d="M53.8,232.2l2.5-7.6,10.8,5.6-1.2,3.8-12-1.8Z"/>
  <path class="cls-1" d="M569.8,391.4l-2.5,7.6-10.8-5.6,1.2-3.8,12,1.8Z"/>
  <path class="cls-1" d="M404.8,58.3l7.5,2.9-6.2,10.5-3.7-1.4,2.4-11.9Z"/>
  <path class="cls-1" d="M218.8,565.3l-7.5-2.9,6.2-10.5,3.7,1.4-2.4,11.9Z"/>
  <path class="cls-1" d="M58.3,218.8l2.9-7.5,10.5,6.2-1.4,3.7-11.9-2.4Z"/>
  <path class="cls-1" d="M565.3,404.8l-2.9,7.5-10.5-6.2,1.4-3.7,11.9,2.4Z"/>
  <path class="cls-1" d="M418,63.5l7.3,3.3-6.7,10.1-3.7-1.6,3.1-11.8Z"/>
  <path class="cls-1" d="M205.6,560.1l-7.3-3.3,6.7-10.1,3.7,1.6-3.1,11.8Z"/>
  <path class="cls-1" d="M63.5,205.6l3.3-7.3,10.1,6.7-1.6,3.7-11.8-3.1Z"/>
  <path class="cls-1" d="M560.1,418l-3.3,7.3-10.1-6.7,1.6-3.7,11.8,3.1Z"/>
  <path class="cls-1" d="M430.8,69.4l7.1,3.6-7.2,9.8-3.6-1.8,3.7-11.6Z"/>
  <path class="cls-1" d="M192.8,554.2l-7.1-3.6,7.2-9.8,3.6,1.8-3.7,11.6Z"/>
  <path class="cls-1" d="M69.4,192.8l3.6-7.1,9.8,7.2-1.8,3.6-11.6-3.7Z"/>
  <path class="cls-1" d="M554.2,430.8l-3.6,7.1-9.8-7.2,1.8-3.6,11.6,3.7Z"/>
  <path class="cls-1" d="M443.3,76l6.9,4-7.7,9.4-3.5-2,4.3-11.4Z"/>
  <path class="cls-1" d="M180.3,547.6l-6.9-4,7.7-9.4,3.5,2-4.3,11.4Z"/>
  <path class="cls-1" d="M76,180.3l4-6.9,9.4,7.7-2,3.5-11.4-4.3Z"/>
  <path class="cls-1" d="M547.6,443.3l-4,6.9-9.4-7.7,2-3.5,11.4,4.3Z"/>
  <path class="cls-1" d="M455.5,83.2l6.7,4.4-8.2,9-3.4-2.2,4.9-11.2Z"/>
  <path class="cls-1" d="M168.1,540.4l-6.7-4.4,8.2-9,3.4,2.2-4.9,11.2Z"/>
  <path class="cls-1" d="M83.2,168.1l4.4-6.7,9,8.2-2.2,3.4-11.2-4.9Z"/>
  <path class="cls-1" d="M540.4,455.5l-4.4,6.7-9-8.2,2.2-3.4,11.2,4.9Z"/>
  <path class="cls-1" d="M467.3,91l6.5,4.7-8.7,8.5-3.2-2.4,5.4-10.9Z"/>
  <path class="cls-1" d="M156.3,532.6l-6.5-4.7,8.7-8.5,3.2,2.4-5.4,10.9Z"/>
  <path class="cls-1" d="M91,156.3l4.7-6.5,8.5,8.7-2.4,3.2-10.9-5.4Z"/>
  <path class="cls-1" d="M532.6,467.3l-4.7,6.5-8.5-8.7,2.4-3.2,10.9,5.4Z"/>
  <path class="cls-1" d="M478.6,99.5l6.2,5-9.1,8.1-3.1-2.5,6-10.6Z"/>
  <path class="cls-1" d="M145,524.2l-6.2-5,9.1-8.1,3.1,2.5-6,10.6Z"/>
  <path class="cls-1" d="M99.5,145l5-6.2,8.1,9.1-2.5,3.1-10.6-6Z"/>
  <path class="cls-1" d="M524.2,478.6l-5,6.2-8.1-9.1,2.5-3.1,10.6,6Z"/>
  <path class="cls-1" d="M489.5,108.5l5.9,5.4-9.5,7.6-3-2.7,6.5-10.3Z"/>
  <path class="cls-1" d="M134.1,515.1l-5.9-5.4,9.5-7.6,3,2.7-6.5,10.3Z"/>
  <path class="cls-1" d="M108.5,134.1l5.4-5.9,7.6,9.5-2.7,3-10.3-6.5Z"/>
  <path class="cls-1" d="M515.1,489.5l-5.4,5.9-7.6-9.5,2.7-3,10.3,6.5Z"/>
  <path class="cls-1" d="M499.9,118.1l5.7,5.7-9.9,7.1-2.8-2.8,7.1-9.9Z"/>
  <path class="cls-1" d="M123.7,505.6l-5.7-5.7,9.9-7.1,2.8,2.8-7.1,9.9Z"/>
  <path class="cls-1" d="M118.1,123.7l5.7-5.7,7.1,9.9-2.8,2.8-9.9-7.1Z"/>
  <path class="cls-1" d="M505.6,499.9l-5.7,5.7-7.1-9.9,2.8-2.8,9.9,7.1Z"/>
  <path class="cls-1" d="M509.8,128.2l5.4,5.9-10.3,6.5-2.7-3,7.6-9.5Z"/>
  <path class="cls-1" d="M113.8,495.4l-5.4-5.9,10.3-6.5,2.7,3-7.6,9.5Z"/>
  <path class="cls-1" d="M128.2,113.8l5.9-5.4,6.5,10.3-3,2.7-9.5-7.6Z"/>
  <path class="cls-1" d="M495.4,509.8l-5.9,5.4-6.5-10.3,3-2.7,9.5,7.6Z"/>
  <path class="cls-1" d="M519.1,138.8l5,6.2-10.6,6-2.5-3.1,8.1-9.1Z"/>
  <path class="cls-1" d="M104.5,484.8l-5-6.2,10.6-6,2.5,3.1-8.1,9.1Z"/>
  <path class="cls-1" d="M138.8,104.5l6.2-5,6,10.6-3.1,2.5-9.1-8.1Z"/>
  <path class="cls-1" d="M484.8,519.1l-6.2,5-6-10.6,3.1-2.5,9.1,8.1Z"/>
  <path class="cls-1" d="M527.9,149.9l4.7,6.5-10.9,5.4-2.4-3.2,8.5-8.7Z"/>
  <path class="cls-1" d="M95.7,473.8l-4.7-6.5,10.9-5.4,2.4,3.2-8.5,8.7Z"/>
  <path class="cls-1" d="M149.9,95.7l6.5-4.7,5.4,10.9-3.2,2.4-8.7-8.5Z"/>
  <path class="cls-1" d="M473.7,527.9l-6.5,4.7-5.4-10.9,3.2-2.4,8.7,8.5Z"/>
  <path class="cls-1" d="M536.1,161.4l4.4,6.7-11.2,4.9-2.2-3.4,9-8.2Z"/>
  <path class="cls-1" d="M87.5,462.2l-4.4-6.7,11.2-4.9,2.2,3.4-9,8.2Z"/>
  <path class="cls-1" d="M161.4,87.5l6.7-4.4,4.9,11.2-3.4,2.2-8.2-9Z"/>
  <path class="cls-1" d="M462.2,536.1l-6.7,4.4-4.9-11.2,3.4-2.2,8.2,9Z"/>
  <path class="cls-1" d="M543.6,173.3l4,6.9-11.4,4.3-2-3.5,9.4-7.7Z"/>
  <path class="cls-1" d="M80,450.3l-4-6.9,11.4-4.3,2,3.5-9.4,7.7Z"/>
  <path class="cls-1" d="M173.3,80l6.9-4,4.3,11.4-3.5,2-7.7-9.4Z"/>
  <path class="cls-1" d="M450.3,543.6l-6.9,4-4.3-11.4,3.5-2,7.7,9.4Z"/>
  <path class="cls-1" d="M550.6,185.7l3.6,7.1-11.6,3.7-1.8-3.6,9.8-7.2Z"/>
  <path class="cls-1" d="M73.1,438l-3.6-7.1,11.6-3.7,1.8,3.6-9.8,7.2Z"/>
  <path class="cls-1" d="M185.7,73.1l7.1-3.6,3.7,11.6-3.6,1.8-7.2-9.8Z"/>
  <path class="cls-1" d="M438,550.6l-7.1,3.6-3.7-11.6,3.6-1.8,7.2,9.8Z"/>
  <path class="cls-1" d="M556.8,198.3l3.3,7.3-11.8,3.1-1.6-3.7,10.1-6.7Z"/>
  <path class="cls-1" d="M66.8,425.3l-3.3-7.3,11.8-3.1,1.6,3.7-10.1,6.7Z"/>
  <path class="cls-1" d="M198.3,66.8l7.3-3.3,3.1,11.8-3.7,1.6-6.7-10.1Z"/>
  <path class="cls-1" d="M425.3,556.8l-7.3,3.3-3.1-11.8,3.7-1.6,6.7,10.1Z"/>
  <path class="cls-1" d="M562.4,211.3l2.9,7.5-11.9,2.4-1.4-3.7,10.5-6.2Z"/>
  <path class="cls-1" d="M61.2,412.3l-2.9-7.5,11.9-2.4,1.4,3.7-10.5,6.2Z"/>
  <path class="cls-1" d="M211.3,61.2l7.5-2.9,2.4,11.9-3.7,1.4-6.2-10.5Z"/>
  <path class="cls-1" d="M412.3,562.4l-7.5,2.9-2.4-11.9,3.7-1.4,6.2,10.5Z"/>
  <path class="cls-1" d="M567.4,224.6l2.5,7.6-12,1.8-1.2-3.8,10.8-5.6Z"/>
  <path class="cls-1" d="M56.3,399.1l-2.5-7.6,12-1.8,1.2,3.8-10.8,5.6Z"/>
  <path class="cls-1" d="M224.6,56.3l7.6-2.5,1.8,12-3.8,1.2-5.6-10.8Z"/>
  <path class="cls-1" d="M399.1,567.4l-7.6,2.5-1.8-12,3.8-1.2,5.6,10.8Z"/>
  <path class="cls-1" d="M571.6,238.1l2.1,7.7-12.1,1.2-1-3.9,11.1-5Z"/>
  <path class="cls-1" d="M52,385.6l-2.1-7.7,12.1-1.2,1,3.9-11.1,5Z"/>
  <path class="cls-1" d="M238.1,52l7.7-2.1,1.2,12.1-3.9,1-5-11.1Z"/>
  <path class="cls-1" d="M385.6,571.6l-7.7,2.1-1.2-12.1,3.9-1,5,11.1Z"/>
  <path class="cls-1" d="M575.1,251.8l1.7,7.8-12.2.5-.8-3.9,11.3-4.5Z"/>
  <path class="cls-1" d="M48.5,371.9l-1.7-7.8,12.2-.5.8,3.9-11.3,4.5Z"/>
  <path class="cls-1" d="M251.8,48.5l7.8-1.7.5,12.2-3.9.8-4.5-11.3Z"/>
  <path class="cls-1" d="M371.9,575.1l-7.8,1.7-.5-12.2,3.9-.8,4.5,11.3Z"/>
  <path class="cls-1" d="M577.9,265.6l1.3,7.9h-12.2c0,0-.6-4-.6-4l11.5-3.9Z"/>
  <path class="cls-1" d="M45.8,358l-1.3-7.9h12.2c0,0,.6,4,.6,4l-11.5,3.9Z"/>
  <path class="cls-1" d="M265.6,45.8l7.9-1.3v12.2c0,0-4,.6-4,.6l-3.9-11.5Z"/>
  <path class="cls-1" d="M358,577.9l-7.9,1.3v-12.2c0,0,4-.6,4-.6l3.9,11.5Z"/>
  <path class="cls-1" d="M579.9,279.6l.8,8-12.1-.7-.4-4,11.7-3.2Z"/>
  <path class="cls-1" d="M43.7,344l-.8-8,12.1.7.4,4-11.7,3.2Z"/>
  <path class="cls-1" d="M279.6,43.7l8-.8-.7,12.1-4,.4-3.2-11.7Z"/>
  <path class="cls-1" d="M344,579.9l-8,.8.7-12.1,4-.4,3.2,11.7Z"/>
  <path class="cls-1" d="M581.2,293.7l.4,8-12.1-1.4-.2-4,11.9-2.6Z"/>
  <path class="cls-1" d="M42.4,329.9l-.4-8,12.1,1.4.2,4-11.9,2.6Z"/>
  <path class="cls-1" d="M293.7,42.4l8-.4-1.4,12.1-4,.2-2.6-11.9Z"/>
  <path class="cls-1" d="M329.9,581.2l-8,.4,1.4-12.1,4-.2,2.6,11.9Z"/>
</svg>