<?xml version="1.0" encoding="UTF-8"?>
<svg id="_レイヤー_1" data-name="レイヤー 1" xmlns="http://www.w3.org/2000/svg" version="1.1" viewBox="0 0 130 130">
  <defs>
    <style>
      .cls-1 {
        fill: #e1e1d2;
        stroke-width: 0px;
      }
    </style>
  </defs>
  <path class="cls-1" d="M127.2,67l1.1-.4,1.8-.6v-2l-2.9-1h-.1c0-.8,0-1.7-.1-2.5h.1s1.1-.5,1.1-.5l1.8-.8-.2-2-3-.7h-.1c-.1-.8-.2-1.6-.4-2.4h.1s1-.6,1-.6l1.7-1-.4-2-3.1-.4h0c-.2-.8-.4-1.6-.6-2.4h0s.9-.7.9-.7l1.6-1.2-.6-1.9h-3.1s0,0,0,0c-.3-.8-.6-1.6-.9-2.3h0s.8-.8.8-.8l1.4-1.3-.8-1.8-3.1.3h0c-.4-.7-.7-1.5-1.1-2.2h0s.8-.9.8-.9l1.3-1.5-1-1.7-3,.6h0c-.4-.7-.9-1.4-1.4-2h0c0,0,.7-1,.7-1l1.1-1.6-1.2-1.6-3,.9h0c-.5-.6-1-1.2-1.6-1.9h0c0,0,.6-1.1.6-1.1l.9-1.7-1.3-1.5-2.8,1.2h0c-.6-.5-1.2-1.1-1.8-1.7h0c0,0,.5-1.2.5-1.2l.8-1.8-1.5-1.3-2.7,1.5h0c-.6-.5-1.3-1-1.9-1.5h0c0,0,.3-1.2.3-1.2l.6-1.9-1.6-1.2-2.5,1.8h0c-.7-.4-1.4-.8-2.1-1.3h0c0,0,.2-1.2.2-1.2l.4-1.9-1.7-1-2.3,2h0c-.8-.3-1.5-.7-2.3-1.1h0s.1-1.2.1-1.2l.2-1.9-1.8-.8-2.1,2.3h0c-.8-.3-1.5-.6-2.3-.8h0c0,0,0-1.2,0-1.2v-1.9s-1.9-.6-1.9-.6l-1.9,2.5h0c-.8-.2-1.6-.4-2.4-.6h0c0,0-.1-1.2-.1-1.2l-.2-1.9-2-.4-1.6,2.7h0c-.8,0-1.6-.2-2.5-.3h0c0,0-.3-1.2-.3-1.2l-.4-1.9-2-.2-1.3,2.8h0c-.8,0-1.7,0-2.5,0h0s-1-3-1-3h-2l-1,3h0c-.8,0-1.7.1-2.5.2h0c0,0-1.3-2.9-1.3-2.9l-2,.2-.7,3.1h0c-.8.2-1.6.3-2.5.4h0c0,0-1.6-2.8-1.6-2.8l-2,.4-.4,3.1h0c-.8.3-1.6.5-2.4.7h0c0,0-1.9-2.6-1.9-2.6l-1.9.6v3.2s0,0,0,0c-.8.3-1.6.6-2.3.9h0c0,0-2.1-2.4-2.1-2.4l-1.8.8.3,3.1h0c-.7.4-1.5.8-2.2,1.2h0c0,0-2.4-2.2-2.4-2.2l-1.7,1,.6,3.1h0c-.7.5-1.4.9-2,1.4h0s-2.6-1.9-2.6-1.9l-1.6,1.2,1,3h0c-.7.5-1.3,1.1-1.9,1.6h0s-2.8-1.6-2.8-1.6l-1.5,1.3,1.3,2.9h0c-.6.6-1.2,1.2-1.8,1.8h0s-2.9-1.3-2.9-1.3l-1.3,1.5,1.6,2.8h0c-.5.7-1.1,1.3-1.6,2h0s-3-1-3-1l-1.2,1.6,1.8,2.6h0c-.5.7-.9,1.4-1.4,2.1h0s-3.1-.7-3.1-.7l-1,1.7,2.1,2.4h0c-.4.7-.8,1.5-1.1,2.2h0s-3.1-.3-3.1-.3l-.8,1.8,2.3,2.1h0c-.3.8-.6,1.6-.9,2.3h0s-3.2,0-3.2,0l-.6,1.9,2.5,1.9h0c-.2.8-.4,1.6-.6,2.4h0s-3.1.3-3.1.3l-.4,2,2.7,1.6h0c-.1.8-.3,1.6-.4,2.5h0s-3.1.7-3.1.7l-.2,2,2.9,1.3h0c0,.8-.1,1.7-.1,2.5h0l-3,1v2l3,1h0c0,.8,0,1.7.1,2.5h0s-2.9,1.3-2.9,1.3l.2,2,3.1.7h0c.1.8.2,1.6.4,2.5h0s-2.7,1.6-2.7,1.6l.4,2,3.1.4h0c.2.8.4,1.6.6,2.4h0s-2.5,1.9-2.5,1.9l.6,1.9h3.2s0,0,0,0c.3.8.6,1.6.9,2.3h0s-2.3,2.1-2.3,2.1l.8,1.8,3.1-.3h0c.4.7.7,1.5,1.1,2.2h0s-2.1,2.4-2.1,2.4l1,1.7,3.1-.6h0c.4.7.9,1.4,1.4,2.1h0s-1.8,2.6-1.8,2.6l1.2,1.6,3-1h0c.5.6,1,1.3,1.6,1.9h0s-1.6,2.8-1.6,2.8l1.3,1.5,2.9-1.3h0c.6.6,1.2,1.2,1.8,1.7h0s-1.3,2.9-1.3,2.9l1.5,1.3,2.8-1.6h0c.6.5,1.3,1,1.9,1.5h0s-1,3.1-1,3.1l1.6,1.2,2.6-1.8h0c.7.4,1.4.9,2.1,1.3h0s-.6,3.1-.6,3.1l1.7,1,2.4-2.1h0c.7.4,1.4.7,2.1,1.1h0c0,0-.3,3.2-.3,3.2l1.8.8,2.1-2.3h0c.8.2,1.5.6,2.3.8h0c0,0,0,3.2,0,3.2l1.9.6,1.9-2.5h0c.8.2,1.6.4,2.4.6h0c0,0,.4,3.2.4,3.2l2,.4,1.6-2.7h0c.8,0,1.6.2,2.5.3h0c0,0,.7,3.1.7,3.1l2,.2,1.3-2.9h0c.8,0,1.7,0,2.5,0h0c0,.1.4,1.2.4,1.2l.6,1.8h2l1-2.9h0c.8-.1,1.7-.2,2.5-.2h0c0,.1.5,1.2.5,1.2l.8,1.8,2-.2.7-3h0c.8-.2,1.6-.3,2.5-.5h0c0,0,.6,1.1.6,1.1l1,1.7,2-.4.4-3.1h0c.8-.3,1.6-.5,2.4-.7h0c0,0,.7,1,.7,1l1.2,1.6,1.9-.6v-3.1s0,0,0,0c.8-.3,1.6-.6,2.3-.9h0c0,0,.8.9.8.9l1.3,1.4,1.8-.8-.3-3.1h0c.8-.4,1.5-.8,2.2-1.2h0s.9.8.9.8l1.5,1.3,1.7-1-.6-3h0c.7-.5,1.5-1,2.2-1.4h0c0,0,.9.7.9.7l1.6,1.1,1.6-1.2-.9-3h0c.7-.6,1.3-1.1,1.9-1.7h0c0,0,1,.7,1,.7l1.7.9,1.5-1.3-1.2-2.8h0c.6-.7,1.2-1.3,1.8-1.8h0c0,0,1.1.5,1.1.5l1.8.8,1.3-1.5-1.5-2.7h0c.5-.7,1.1-1.4,1.6-2h0c0,0,1.1.4,1.1.4l1.9.6,1.2-1.6-1.8-2.5h0c.5-.7.9-1.4,1.4-2.2h0c0,0,1.1.3,1.1.3l1.9.4,1-1.7-2-2.3h0c.4-.8.8-1.5,1.1-2.3h0s1.2.1,1.2.1l1.9.2.8-1.8-2.3-2.1h0c.3-.8.6-1.6.9-2.4h0s1.2,0,1.2,0h1.9s.6-1.9.6-1.9l-2.5-1.9h0c.2-.8.4-1.6.6-2.4h0s1.2-.1,1.2-.1l1.9-.2.4-2-2.7-1.6h-.1c.1-.8.3-1.7.4-2.5h.1s1.1-.2,1.1-.2l1.9-.4.2-2-2.8-1.3h-.1c0-.8.1-1.7.1-2.5h.1ZM36.4,95.4c-5.7,3.3-13.1,1.3-16.4-4.4-3.3-5.7-1.3-13.1,4.4-16.4s13.1-1.3,16.4,4.4c3.3,5.7,1.3,13.1-4.4,16.4ZM40.8,51c-3.3,5.7-10.7,7.7-16.4,4.4-5.7-3.3-7.7-10.7-4.4-16.4,3.3-5.7,10.7-7.7,16.4-4.4,5.7,3.3,7.7,10.7,4.4,16.4ZM65,13c6.6,0,12,5.4,12,12s-5.4,12-12,12-12-5.4-12-12,5.4-12,12-12ZM65,117c-6.6,0-12-5.4-12-12s5.4-12,12-12,12,5.4,12,12-5.4,12-12,12ZM65,83c-9.9,0-18-8.1-18-18s8.1-18,18-18,18,8.1,18,18-8.1,18-18,18ZM93.6,34.6c5.7-3.3,13.1-1.3,16.4,4.4s1.3,13.1-4.4,16.4c-5.7,3.3-13.1,1.3-16.4-4.4s-1.3-13.1,4.4-16.4ZM110,91c-3.3,5.7-10.7,7.7-16.4,4.4-5.7-3.3-7.7-10.7-4.4-16.4,3.3-5.7,10.7-7.7,16.4-4.4,5.7,3.3,7.7,10.7,4.4,16.4Z"/>
</svg>