<?xml version="1.0" encoding="UTF-8"?>
<svg id="_レイヤー_1" data-name="レイヤー 1" xmlns="http://www.w3.org/2000/svg" version="1.1" viewBox="0 0 33 33">
  <defs>
    <style>
      .cls-1 {
        fill: #e1e1d2;
        stroke-width: 0px;
      }
    </style>
  </defs>
  <path class="cls-1" d="M29.3,9.7l-.5-.9,1.7-1,.5.9-1.7,1Z"/>
  <path class="cls-1" d="M2.5,25.2l-.5-.9,1.7-1,.5.9-1.7,1Z"/>
  <path class="cls-1" d="M9.2,2.8l-.9.5-.5-.9.9-.5.5.9Z"/>
  <path class="cls-1" d="M25.2,30.5l-.9.5-.5-.9.9-.5.5.9Z"/>
  <path class="cls-1" d="M28.1,7.4l-.6-.8,1.3-1.1.6.8-1.3,1.1Z"/>
  <path class="cls-1" d="M4.2,27.5l-.6-.8,1.5-1.3.6.8-1.5,1.3Z"/>
  <path class="cls-1" d="M6.3,29.5l-.8-.6,1.3-1.6.8.6-1.3,1.6Z"/>
  <path class="cls-1" d="M26.4,5.5l-.8-.6,1.1-1.3.8.6-1.1,1.3Z"/>
  <path class="cls-1" d="M8.7,31l-.9-.5.7-1.2.9.5-.7,1.2Z"/>
  <path class="cls-1" d="M24.5,3.7l-.9-.5.7-1.2.9.5-.7,1.2Z"/>
  <path class="cls-1" d="M11.3,32.2l-.9-.3.7-1.9.9.3-.7,1.9Z"/>
  <path class="cls-1" d="M22,2.8l-.9-.3.6-1.7.9.3-.6,1.7Z"/>
  <path class="cls-1" d="M14.1,32.8l-1-.2.3-1.6,1,.2-.3,1.6Z"/>
  <path class="cls-1" d="M19.6,1.9l-1-.2.3-1.5,1,.2-.3,1.5Z"/>
  <path class="cls-1" d="M19.9,32.7l-1,.2-.3-1.9,1-.2.3,1.9Z"/>
  <path class="cls-1" d="M14.3,1.2l-1,.2-.2-1,1-.2.2,1Z"/>
  <path class="cls-1" d="M17,1.4h-1V0h1v1.4Z"/>
  <path class="cls-1" d="M17,33h-1v-1.9h1v1.9Z"/>
  <path class="cls-1" d="M22.6,31.8l-.9.3-.7-1.9.9-.3.7,1.9Z"/>
  <path class="cls-1" d="M11.9,2.5l-.9.3-.6-1.7.9-.3.6,1.7Z"/>
  <path class="cls-1" d="M7.4,4.8l-.8.6-1.1-1.3.8-.6,1.1,1.3Z"/>
  <path class="cls-1" d="M27.5,28.8l-.8.6-.9-1.1.8-.6.9,1.1Z"/>
  <path class="cls-1" d="M5.1,6.3l-.6.8-.9-.8.6-.8.9.8Z"/>
  <path class="cls-1" d="M29.5,26.7l-.6.8-.9-.8.6-.8.9.8Z"/>
  <path class="cls-1" d="M3.6,8.5l-.5.9-1.2-.7.5-.9,1.2.7Z"/>
  <path class="cls-1" d="M31,24.3l-.5.9-1.1-.7.5-.9,1.1.7Z"/>
  <path class="cls-1" d="M2.4,10.8l-.3.9-1.2-.4.3-.9,1.2.4Z"/>
  <path class="cls-1" d="M32.2,21.7l-.3.9-1.1-.4.3-.9,1.1.4Z"/>
  <path class="cls-1" d="M1.7,13.4l-.2,1-1.4-.2.2-1,1.4.2Z"/>
  <path class="cls-1" d="M32.8,18.9l-.2,1-1.2-.2.2-1,1.2.2Z"/>
  <path class="cls-1" d="M1.3,16v1H0v-1h1.3Z"/>
  <path class="cls-1" d="M33,16v1h-1.1v-1h1.1Z"/>
  <path class="cls-1" d="M2,18.5l.2,1-1.9.3-.2-1,1.9-.3Z"/>
  <path class="cls-1" d="M32.7,13.1l.2,1-2,.4-.2-1,2-.4Z"/>
  <path class="cls-1" d="M2.2,21.2l.3.9-1.4.5-.3-.9,1.4-.5Z"/>
  <path class="cls-1" d="M31.8,10.4l.3.9-1.6.6-.3-.9,1.6-.6Z"/>
  <path class="cls-1" d="M29.9,8.7C25.6,1.3,16.2-1.2,8.8,3.1,1.3,7.4-1.2,16.8,3.1,24.2c4.3,7.4,13.8,10,21.2,5.7,7.4-4.3,10-13.8,5.7-21.2ZM20.3,10c.2.1.3.4.2.7s-.4.3-.7.2-.3-.4-.2-.7.4-.3.7-.2ZM16.6,3c1.9,0,3.5,1.6,3.5,3.5s-1.6,3.5-3.5,3.5-3.5-1.6-3.5-3.5,1.6-3.5,3.5-3.5ZM12.7,10.1c.2-.1.5,0,.7.2.1.2,0,.5-.2.7-.2.1-.5,0-.7-.2-.1-.2,0-.5.2-.7ZM9.6,24.5c-1.7,1-3.8.4-4.8-1.3s-.4-3.8,1.3-4.8c1.7-1,3.8-.4,4.8,1.3s.4,3.8-1.3,4.8ZM9.1,16.5c0-.3.2-.5.5-.5s.5.2.5.5-.2.5-.5.5-.5-.2-.5-.5ZM10.9,13.2c-1,1.7-3.1,2.2-4.8,1.3-1.7-1-2.2-3.1-1.3-4.8s3.1-2.2,4.8-1.3c1.7,1,2.2,3.1,1.3,4.8ZM12.8,23c-.2-.1-.3-.4-.2-.7s.4-.3.7-.2.3.4.2.7-.4.3-.7.2ZM16.6,30c-1.9,0-3.5-1.6-3.5-3.5s1.6-3.5,3.5-3.5,3.5,1.6,3.5,3.5-1.6,3.5-3.5,3.5ZM20.3,23c-.2.1-.5,0-.7-.2-.1-.2,0-.5.2-.7.2-.1.5,0,.7.2.1.2,0,.5-.2.7ZM18.9,20.6c-2.3,1.3-5.2.5-6.5-1.7-1.3-2.3-.5-5.2,1.7-6.5,2.3-1.3,5.2-.5,6.5,1.7,1.3,2.3.5,5.2-1.7,6.5ZM28.2,23.2c-1,1.7-3.1,2.2-4.8,1.3s-2.2-3.1-1.3-4.8c1-1.7,3.1-2.2,4.8-1.3s2.2,3.1,1.3,4.8ZM23.1,16.5c0-.3.2-.5.5-.5s.5.2.5.5-.2.5-.5.5-.5-.2-.5-.5ZM27,14.5c-1.7,1-3.8.4-4.8-1.3-1-1.7-.4-3.8,1.3-4.8s3.8-.4,4.8,1.3c1,1.7.4,3.8-1.3,4.8Z"/>
</svg>