<?xml version="1.0" encoding="UTF-8"?>
<svg id="_レイヤー_1" data-name="レイヤー 1" xmlns="http://www.w3.org/2000/svg" version="1.1" viewBox="0 0 130.3 130.7">
  <defs>
    <style>
      .cls-1 {
        fill: #e1e1d2;
        stroke-width: 0px;
      }
    </style>
  </defs>
  <path class="cls-1" d="M128.3,67l1.8-.6v-2l-2.9-1c0-.9,0-1.7-.1-2.5l1-.5,1.8-.8-.2-2-3-.7c-.1-.8-.3-1.7-.4-2.5l.9-.6,1.7-1-.4-2-3-.4c-.2-.8-.4-1.6-.7-2.5l.9-.7,1.6-1.2-.6-1.9h-3c-.3-.8-.6-1.6-.9-2.4l.8-.8,1.4-1.3-.8-1.8-3,.3c-.4-.8-.8-1.5-1.2-2.3l.7-.8,1.3-1.5-1-1.7-3,.6c-.4-.7-.9-1.4-1.4-2.1l.7-.9,1.1-1.6-1.2-1.6-3,.9h0c-.5-.7-1-1.3-1.6-1.9h0s.6-1,.6-1l.9-1.7-1.3-1.5-2.8,1.2h0c-.6-.6-1.2-1.2-1.8-1.7h0s.5-1.1.5-1.1l.8-1.8-1.5-1.3-2.7,1.5h0c-.6-.5-1.3-1-1.9-1.5h0s.3-1.1.3-1.1l.6-1.9-1.6-1.2-2.5,1.8h0c-.7-.4-1.4-.9-2.1-1.3h0s.2-1.2.2-1.2l.4-1.9-1.7-1-2.3,2h0c-.7-.3-1.5-.7-2.2-1.1h0s.1-1.2.1-1.2l.2-1.9-1.8-.8-2.1,2.3h0c-.8-.2-1.5-.5-2.3-.8h0c0,0,0-1.2,0-1.2v-1.9s-1.9-.6-1.9-.6l-1.9,2.5h0c0,0-.2,0-.3,0-.7-.2-1.4-.4-2.2-.6h0c0,0-.1-1.2-.1-1.2l-.2-1.9-2-.4-1.6,2.7h0c-.8,0-1.6-.2-2.5-.3h0c0-.1-.3-1.2-.3-1.2l-.4-1.9-2-.2-1.3,2.8h0c-.8,0-1.7,0-2.5,0h0c0,0-1-3.1-1-3.1h-2l-1,3h0c-.8,0-1.7.1-2.5.2h0s-1.3-2.9-1.3-2.9l-2,.2-.7,3.1h0c-.8.2-1.6.3-2.5.4h0s-1.6-2.8-1.6-2.8l-2,.4-.4,3.1h0c-.8.2-1.6.4-2.4.7h0s-1.9-2.6-1.9-2.6l-1.9.6v3.2s0,0,0,0c-.8.3-1.6.6-2.3.9h0s-2.1-2.4-2.1-2.4l-1.8.8.3,3.1h0c-.7.4-1.5.8-2.2,1.2h0s-2.4-2.1-2.4-2.1l-1.7,1,.6,3.1h0c-.7.5-1.4.9-2.1,1.4h0s-2.6-1.9-2.6-1.9l-1.6,1.2,1,3h0c-.7.5-1.3,1.1-1.9,1.6h0s-2.8-1.6-2.8-1.6l-1.5,1.3,1.3,2.9h0c-.6.6-1.2,1.2-1.8,1.8h0s-2.9-1.3-2.9-1.3l-1.3,1.5,1.6,2.8h0c-.5.7-1.1,1.3-1.6,2h0s-3-1-3-1l-1.2,1.6,1.8,2.6h0c-.5.7-.9,1.4-1.4,2.1h0s-3.1-.7-3.1-.7l-1,1.7,2.1,2.4h0c-.4.7-.8,1.5-1.1,2.2h0s-3.1-.3-3.1-.3l-.8,1.8,2.3,2.1h0c-.3.8-.6,1.6-.9,2.3h0s-3.2,0-3.2,0l-.6,1.9,2.5,1.9h0c-.2.8-.4,1.6-.6,2.4h0s-3.1.3-3.1.3l-.4,2,2.7,1.6h0c-.1.8-.3,1.6-.4,2.5h0s-3.1.7-3.1.7l-.2,2,2.9,1.3h0c0,.8-.1,1.7-.1,2.5h0l-3,1v2l3,1h0c0,.8,0,1.7.1,2.5h0s-2.9,1.3-2.9,1.3l.2,2,3.1.7h0c.1.8.2,1.6.4,2.5h0s-2.7,1.6-2.7,1.6l.4,2,3.1.4h0c.2.8.4,1.6.6,2.4h0s-2.5,1.9-2.5,1.9l.6,1.9h3.2s0,0,0,0c.3.8.6,1.6.9,2.3h0s-2.3,2.1-2.3,2.1l.8,1.8,3.1-.3h0c.4.7.7,1.5,1.1,2.2h0s-2.1,2.4-2.1,2.4l1,1.7,3.1-.6h0c.4.7.9,1.4,1.4,2.1h0s-1.8,2.6-1.8,2.6l1.2,1.6,3-1h0c.5.6,1,1.3,1.6,1.9h0s-1.6,2.8-1.6,2.8l1.3,1.5,2.9-1.3h0c.6.6,1.2,1.2,1.8,1.7h0s-1.3,2.9-1.3,2.9l1.5,1.3,2.8-1.6h0c.6.5,1.3,1,1.9,1.5h0s-1,3.1-1,3.1l1.6,1.2,2.6-1.8h0c.7.4,1.4.9,2.1,1.3h0s-.6,3.1-.6,3.1l1.7,1,2.4-2.1h0c.7.4,1.5.7,2.2,1.1h0s-.3,3.2-.3,3.2l1.8.8,2.1-2.3h0c.8.3,1.5.6,2.3.9h0s0,3.2,0,3.2l1.9.6,1.9-2.5h0c.8.2,1.5.4,2.3.6,0,0,0,0,.1,0h0s.4,3.2.4,3.2l2,.4,1.6-2.7h0c.3,0,.5,0,.8.1.3,0,.7.1,1,.2.2,0,.4,0,.6.1h0s.7,3.1.7,3.1l2,.2,1.3-2.9h0c.8,0,1.7,0,2.5.1h0c0,0,.4,1.2.4,1.2l.6,1.8h2l1-2.9h0c.8,0,1.7-.1,2.5-.2h0c0,0,.5,1.1.5,1.1l.8,1.8,2-.2.7-3h0c.8-.2,1.7-.3,2.5-.4h0s.6,1,.6,1l1,1.7,2-.4.4-3.1h0c.8-.2,1.6-.4,2.4-.7h0s.7.9.7.9l1.2,1.6,1.9-.6v-3.1c.8-.3,1.6-.6,2.4-.9l.8.8,1.3,1.4,1.8-.8-.3-3.1c.8-.4,1.5-.8,2.2-1.1l.9.7,1.5,1.3,1.7-1-.6-3c.7-.4,1.4-.9,2.1-1.4l.9.6,1.6,1.1,1.6-1.2-.9-2.9c.7-.5,1.3-1,2-1.6l1,.5,1.7.9,1.5-1.3-1.2-2.8c.6-.6,1.2-1.2,1.8-1.8l1,.4,1.8.8,1.3-1.5-1.5-2.7c.5-.6,1.1-1.3,1.6-2l1.1.3,1.9.6,1.2-1.6-1.7-2.5c.5-.7.9-1.4,1.4-2.1l1.1.2,1.9.4,1-1.7-2-2.3c.4-.8.8-1.5,1.2-2.3h1.1c0,0,1.9.3,1.9.3l.8-1.8-2.2-2c.3-.8.6-1.6.9-2.4h1.1s1.9,0,1.9,0l.6-1.9-2.4-1.8c.2-.8.5-1.6.7-2.5h1.1c0-.1,1.9-.4,1.9-.4l.4-2-2.6-1.6c.1-.8.3-1.7.4-2.5l1.1-.2,1.9-.4.2-2-2.8-1.3c0-.8.1-1.7.1-2.5l1-.4ZM73.4,3.9h0s0,0,0,0c0,0,0,0,0,0ZM65.2,17.4c14.5,0,27.6,6.5,36.4,16.7-3.2,3.3-6.9,6.2-10.9,8.6-7.6,4.4-16.2,6.7-25,6.7-8.8,0-17.4-2.3-25-6.7-4.2-2.4-8.1-5.5-11.4-9,8.8-10,21.6-16.3,36-16.3ZM55.9,112.4c-22-4.3-38.7-23.7-38.7-47s1-10.9,2.7-15.9c4.6,1.1,9,2.9,13.1,5.2,7.6,4.4,13.9,10.7,18.3,18.3,4.4,7.6,6.7,16.2,6.7,25,0,4.9-.7,9.7-2.1,14.4ZM65.6,77.4c-6.6,0-12-5.4-12-12s5.4-12,12-12,12,5.4,12,12-5.4,12-12,12ZM74.8,112.3c-1.4-4.6-2.1-9.5-2.1-14.3,0-8.8,2.3-17.4,6.7-25,4.4-7.6,10.7-13.9,18.3-18.3,4-2.3,8.3-4,12.7-5.2,1.7,5,2.7,10.3,2.7,15.8,0,23.2-16.4,42.5-38.3,47ZM114.8,102.5s0,0,0-.1c0,0,0,0,0,0h-.1ZM122.5,89c0-.2.1-.3.2-.5v.5c0,0-.1,0-.2,0Z"/>
</svg>