<svg width="252" height="217" viewBox="0 0 252 217" fill="none" xmlns="http://www.w3.org/2000/svg">
<path d="M123.6 53.9816L124.6 50.9816H126.6L127.6 53.9816L127.6 178.05L126.6 180.982H124.6L123.974 179.147L123.6 178.05L123.6 53.9816Z" fill="#E1E1D2"/>
<path d="M117.13 54.5303L117.812 51.4422L119.801 51.2331L121.109 54.1122L134.077 177.501L133.39 180.521L131.401 180.73L130.587 178.971L130.1 177.919L117.13 54.5303Z" fill="#E1E1D2"/>
<path d="M110.753 55.7523L111.108 52.6099L113.064 52.194L114.666 54.9207L140.461 176.278L140.093 179.353L138.137 179.769L137.143 178.105L136.549 177.109L110.753 55.7523Z" fill="#E1E1D2"/>
<path d="M104.539 57.6341L104.563 54.4717L106.465 53.8537L108.343 56.398L146.682 174.394L146.638 177.491L144.736 178.109L143.574 176.558L142.879 175.63L104.539 57.6341Z" fill="#E1E1D2"/>
<path d="M98.5552 60.1552L98.249 57.0076L100.076 56.1941L102.209 58.5282L152.673 171.87L152.952 174.955L151.125 175.769L149.807 174.347L149.019 173.497L98.5552 60.1552Z" fill="#E1E1D2"/>
<path d="M92.8677 63.288L92.2341 60.1897L93.9662 59.1897L96.3318 61.288L158.366 168.734L158.966 171.773L157.234 172.773L155.775 171.497L154.902 170.734L92.8677 63.288Z" fill="#E1E1D2"/>
<path d="M87.5387 66.9981L86.5848 63.983L88.2028 62.8074L90.7749 64.6469L163.7 165.02L164.615 167.98L162.997 169.155L161.413 168.039L160.465 167.371L87.5387 66.9981Z" fill="#E1E1D2"/>
<path d="M82.6275 71.2448L81.3636 68.3459L82.8499 67.0077L85.6001 68.5683L168.618 160.769L169.837 163.616L168.351 164.955L166.658 164.01L165.646 163.445L82.6275 71.2448Z" fill="#E1E1D2"/>
<path d="M78.1865 75.9818L76.6265 73.2309L77.9647 71.7446L80.863 73.0091L173.064 156.027L174.574 158.732L173.235 160.218L171.454 159.456L170.388 158.999L78.1865 75.9818Z" fill="#E1E1D2"/>
<path d="M74.2649 81.1569L72.426 78.5841L73.6015 76.9661L76.6161 77.9208L176.99 150.846L178.774 153.378L177.598 154.996L175.747 154.424L174.639 154.082L74.2649 81.1569Z" fill="#E1E1D2"/>
<path d="M70.9057 86.7136L68.8079 84.3472L69.8079 82.6151L72.9057 83.2495L180.352 145.284L182.391 147.615L181.391 149.347L179.49 148.972L178.352 148.747L70.9057 86.7136Z" fill="#E1E1D2"/>
<path d="M68.1464 92.5911L65.8127 90.4569L66.6262 88.6298L69.7734 88.9368L183.115 139.4L185.387 141.506L184.574 143.333L182.644 143.158L181.489 143.054L68.1464 92.5911Z" fill="#E1E1D2"/>
<path d="M66.0163 98.7245L63.4723 96.846L64.0903 94.9439L67.2523 94.9203L185.248 133.259L187.728 135.116L187.11 137.018L185.172 137.046L184.012 137.063L66.0163 98.7245Z" fill="#E1E1D2"/>
<path d="M64.538 105.047L61.8115 103.445L62.2274 101.489L65.3696 101.135L186.727 126.93L189.387 128.517L188.971 130.473L187.047 130.704L185.895 130.842L64.538 105.047Z" fill="#E1E1D2"/>
<path d="M63.7297 111.49L60.8507 110.181L61.0597 108.192L64.1478 107.512L187.536 120.48L190.348 121.781L190.139 123.77L188.249 124.2L187.118 124.458L63.7297 111.49Z" fill="#E1E1D2"/>
<path d="M63.5996 117.981L60.5996 116.981V114.981L63.5996 113.981L187.668 113.981L190.6 114.981V116.981L188.765 117.607L187.668 117.981L63.5996 117.981Z" fill="#E1E1D2"/>
<path d="M64.1476 124.451L61.0595 123.77L60.8504 121.781L63.7295 120.473L187.118 107.504L190.138 108.192L190.347 110.181L188.589 110.995L187.536 111.482L64.1476 124.451Z" fill="#E1E1D2"/>
<path d="M65.37 130.828L62.2275 130.473L61.8117 128.517L64.5383 126.916L185.895 101.12L188.971 101.489L189.387 103.445L187.723 104.438L186.727 105.033L65.37 130.828Z" fill="#E1E1D2"/>
<path d="M67.2516 137.043L64.0893 137.018L63.4712 135.116L66.0155 133.238L184.012 94.8992L187.109 94.9439L187.727 96.846L186.176 98.0079L185.247 98.703L67.2516 137.043Z" fill="#E1E1D2"/>
<path d="M69.7729 143.026L66.6253 143.332L65.8118 141.505L68.1459 139.372L181.488 88.9089L184.573 88.6296L185.386 90.4567L183.965 91.7743L183.115 92.5627L69.7729 143.026Z" fill="#E1E1D2"/>
<path d="M72.9057 148.714L69.8074 149.347L68.8074 147.615L70.9057 145.249L178.352 83.2152L181.391 82.615L182.391 84.3471L181.115 85.806L180.352 86.6789L72.9057 148.714Z" fill="#E1E1D2"/>
<path d="M76.616 154.042L73.6009 154.996L72.4253 153.378L74.2648 150.806L174.638 77.8805L177.598 76.966L178.773 78.584L177.657 80.1683L176.989 81.1162L76.616 154.042Z" fill="#E1E1D2"/>
<path d="M80.8627 158.954L77.9638 160.218L76.6256 158.732L78.1862 155.981L170.387 72.9634L173.234 71.7445L174.573 73.2308L173.628 74.9231L173.063 75.9356L80.8627 158.954Z" fill="#E1E1D2"/>
<path d="M85.5997 163.395L82.8488 164.955L81.3625 163.617L82.6271 160.718L165.645 68.5175L168.349 67.0077L169.836 68.346L169.073 70.1277L168.617 71.1938L85.5997 163.395Z" fill="#E1E1D2"/>
<path d="M90.7751 167.316L88.2023 169.155L86.5843 167.98L87.539 164.965L160.465 64.5915L162.996 62.8073L164.614 63.9829L164.042 65.8345L163.7 66.9424L90.7751 167.316Z" fill="#E1E1D2"/>
<path d="M96.3315 170.675L93.9651 172.773L92.233 171.773L92.8674 168.675L154.902 61.2287L157.233 59.1896L158.965 60.1896L158.59 62.0909L158.365 63.2285L96.3315 170.675Z" fill="#E1E1D2"/>
<path d="M102.209 173.435L100.075 175.769L98.2477 174.955L98.5547 171.808L149.018 58.4659L151.123 56.1942L152.951 57.0077L152.776 58.9378L152.672 60.0926L102.209 173.435Z" fill="#E1E1D2"/>
<path d="M108.343 175.565L106.464 178.109L104.562 177.491L104.538 174.329L142.878 56.3329L144.734 53.8537L146.636 54.4717L146.665 56.4095L146.681 57.5689L108.343 175.565Z" fill="#E1E1D2"/>
<path d="M114.665 177.042L113.063 179.769L111.107 179.353L110.753 176.211L136.548 54.8537L138.135 52.1939L140.091 52.6097L140.322 54.5339L140.46 55.6852L114.665 177.042Z" fill="#E1E1D2"/>
<path d="M121.108 177.851L119.799 180.73L117.81 180.521L117.129 177.433L130.098 54.0441L131.399 51.233L133.388 51.4421L133.818 53.3316L134.076 54.4622L121.108 177.851Z" fill="#E1E1D2"/>
<circle cx="125.6" cy="115.979" r="62" fill="#E1E1D2"/>
<path d="M169.152 75C164.764 82.6002 158.453 88.9116 150.853 93.2999C143.253 97.6883 134.632 99.9991 125.856 100C117.08 100.001 108.458 97.692 100.857 93.3053C93.2566 88.9185 86.9442 82.6084 82.5546 75.0092L118.09 54.483C118.876 55.8452 120.008 56.9763 121.37 57.7626C122.733 58.549 124.278 58.9628 125.852 58.9627C127.425 58.9625 128.97 58.5483 130.332 57.7617C131.695 56.975 132.826 55.8437 133.612 54.4813L169.152 75Z" fill="#FFFFF0"/>
<path d="M139.647 173.535C135.259 165.935 132.949 157.313 132.948 148.538C132.948 139.762 135.257 131.14 139.644 123.54C144.031 115.939 150.342 109.627 157.941 105.238C165.541 100.848 174.162 98.5368 182.938 98.5349L182.946 139.572C181.373 139.573 179.828 139.987 178.466 140.774C177.103 141.561 175.972 142.692 175.186 144.054C174.399 145.417 173.985 146.962 173.986 148.535C173.986 150.109 174.4 151.654 175.186 153.016L139.647 173.535Z" fill="#FFFFF0"/>
<path d="M68.3013 98.5986C77.0772 98.5986 85.6986 100.908 93.299 105.296C100.899 109.684 107.211 115.994 111.6 123.594C115.989 131.194 118.3 139.815 118.301 148.591C118.303 157.367 115.994 165.988 111.608 173.589L76.0641 153.078C76.8504 151.716 77.2642 150.17 77.2639 148.597C77.2637 147.024 76.8494 145.479 76.0627 144.116C75.276 142.754 74.1446 141.623 72.7822 140.836C71.4198 140.05 69.8744 139.636 68.3013 139.636L68.3013 98.5986Z" fill="#FFFFF0"/>
<path d="M187.851 116C187.851 150.242 160.092 178 125.851 178C91.6089 178 63.8506 150.242 63.8506 116C63.8506 81.7583 91.6089 54 125.851 54C160.092 54 187.851 81.7583 187.851 116ZM77.9258 116C77.9258 142.468 99.3824 163.925 125.851 163.925C152.319 163.925 173.775 142.468 173.775 116C173.775 89.5319 152.319 68.0752 125.851 68.0752C99.3824 68.0752 77.9258 89.5319 77.9258 116Z" fill="#E1E1D2"/>
<circle cx="125.851" cy="116" r="12" fill="#FFFFF0"/>
</svg>
