<svg width="82" height="88" viewBox="0 0 82 88" fill="none" xmlns="http://www.w3.org/2000/svg">
<path d="M16.8633 64.587H0.145508V87.9919H16.8633V64.587Z" fill="#465945"/>
<path d="M50.1763 14.442C49.2897 15.629 48.8047 17.0672 48.8047 18.5708C48.8047 20.427 49.5231 22.1496 50.8275 23.4524C52.132 24.7566 53.8707 25.475 55.7089 25.475C57.5488 25.475 59.2877 24.7566 60.5905 23.4703C63.0492 21.0116 63.2662 17.1504 61.2254 14.442H50.1763Z" fill="#465945"/>
<path d="M46.9487 40.5048V88H63.6665V40.805C61.1425 41.7081 58.4522 42.1766 55.7092 42.1766C52.6677 42.1766 49.6913 41.592 46.9487 40.5048Z" fill="#465945"/>
<path d="M80.34 37.4354L71.32 28.649C73.244 25.6759 74.2849 22.2099 74.2849 18.5775C74.2849 13.6079 72.3535 8.9418 68.8483 5.43658C65.3431 1.93136 60.677 0 55.7076 0C50.738 0 46.0704 1.93136 42.5667 5.43658C39.0598 8.9418 37.1301 13.6077 37.1301 18.5775C37.1301 23.547 39.0599 28.2145 42.5652 31.7197C46.0704 35.2249 50.738 37.1561 55.7076 37.1561C59.3408 37.1561 62.8067 36.1145 65.7813 34.1882L74.5638 43.2068C76.2014 45.1804 78.6177 45.298 80.4853 43.4304C82.3546 41.5644 82.3138 39.068 80.34 37.4354ZM55.7076 28.5476C53.0449 28.5476 50.5403 27.5093 48.6564 25.6267C46.774 23.7445 45.7373 21.24 45.7373 18.5775C45.7373 15.9146 46.774 13.4119 48.6564 11.5294C50.5403 9.64717 53.0432 8.60888 55.7076 8.60888C58.3686 8.60888 60.8731 9.64717 62.7555 11.5294C66.6426 15.4165 66.6426 21.7412 62.7555 25.6285C60.8729 27.5108 58.3703 28.5476 55.7076 28.5476Z" fill="#465945"/>
<path d="M40.2615 51.2209H23.5437V88H40.2615V51.2209Z" fill="#465945"/>
</svg>
