<svg width="89" height="88" viewBox="0 0 89 88" fill="none" xmlns="http://www.w3.org/2000/svg">
<path d="M13.5782 19.9667C8.4541 19.9667 4.29712 24.1673 4.29712 29.3481C4.29712 34.5305 8.4541 38.7298 13.5782 38.7298C18.7051 38.7298 22.8593 34.5305 22.8593 29.3481C22.8593 24.1673 18.7051 19.9667 13.5782 19.9667Z" fill="#465945"/>
<path d="M13.574 44.5044C9.17867 44.5044 5.45817 47.9385 5.61307 52.5502L7.79528 82.1574C8.04727 85.5002 10.383 87.9999 13.574 87.9999C16.7664 87.9999 19.0578 85.5805 19.3542 82.1572L21.535 52.55C21.8113 47.9385 17.9708 44.5044 13.574 44.5044Z" fill="#465945"/>
<path d="M75.4218 38.7298C80.5473 38.7298 84.7029 34.5305 84.7029 29.3481C84.7029 24.1671 80.5473 19.9667 75.4218 19.9667C70.2963 19.9667 66.1409 24.1673 66.1409 29.3481C66.1409 34.5307 70.2963 38.7298 75.4218 38.7298Z" fill="#465945"/>
<path d="M75.4177 44.5044C71.021 44.5044 67.3006 47.9385 67.4569 52.5502L69.6391 82.1574C69.8909 85.5002 72.2253 87.9999 75.4177 87.9999C78.6102 87.9999 80.9014 85.5805 81.1965 82.1572L83.3773 52.55C83.6534 47.9385 79.8144 44.5044 75.4177 44.5044Z" fill="#465945"/>
<path d="M56.6966 15.0227L56.1107 17.1973C57.9709 17.7093 59.5456 18.6665 60.6299 19.8605C61.7184 21.0602 62.3178 22.4668 62.319 23.9808C62.3178 25.1994 61.9298 26.3431 61.2144 27.374C60.4991 28.402 59.451 29.3048 58.162 29.972L57.2203 30.4595L58.4407 33.2181C54.7418 32.5672 51.3095 31.3541 49.576 30.6706L49.541 30.6568L49.5059 30.646C47.1783 29.9079 45.3639 28.4577 44.4396 26.7448L42.4839 27.8301C43.734 30.1285 46.0063 31.874 48.7676 32.7714V32.7728C50.9135 33.6129 55.4234 35.2113 60.1609 35.7479L62.0993 35.9643L60.0963 31.4371C61.2722 30.6883 62.2799 29.7608 63.0382 28.6703C63.9894 27.3087 64.551 25.6965 64.5485 23.9808C64.551 21.843 63.6796 19.877 62.2731 18.3356C60.8645 16.7887 58.9246 15.6354 56.6966 15.0227Z" fill="#465945"/>
<path d="M52.1761 20.5006C53.9839 18.4131 55.0816 15.818 55.0803 13.013C55.0816 11.1789 54.6115 9.42648 53.7804 7.8552C52.5305 5.49416 50.4775 3.53616 47.9384 2.16236C45.3965 0.791141 42.3602 0.001375 39.1019 0C34.7618 0.001375 30.8082 1.4025 27.9028 3.72402C26.4494 4.88555 25.2573 6.28117 24.4261 7.8552C23.5936 9.42648 23.1262 11.1789 23.1262 13.013C23.1249 15.3522 23.8887 17.5527 25.1952 19.4262C26.312 21.0287 27.8219 22.3986 29.6026 23.4716L26.9207 29.5362L28.8577 29.3196C35.5484 28.5625 41.9535 26.2955 44.9952 25.1054C47.886 24.1715 50.3806 22.5742 52.1761 20.5006ZM44.2219 22.9897L44.1869 23.0032C41.5548 24.0381 36.23 25.9172 30.5699 26.8089L32.4881 22.4749L31.5466 21.9875C29.6458 21.0043 28.09 19.6659 27.0193 18.1287C25.9471 16.5873 25.3583 14.8569 25.3571 13.0132C25.3571 11.5656 25.7206 10.1906 26.3929 8.91739C27.3992 7.01113 29.1153 5.34308 31.3189 4.15302C33.5227 2.96158 36.2047 2.255 39.1021 2.25638C42.9693 2.255 46.4475 3.5145 48.9206 5.49278C50.1573 6.48141 51.1418 7.64689 51.8127 8.91722C52.4849 10.1905 52.8484 11.5655 52.8499 13.013C52.8486 15.2188 52.0027 17.2721 50.4967 19.0164C48.9932 20.7565 46.8246 22.1631 44.2571 22.98L44.2219 22.9897Z" fill="#465945"/>
<path d="M32.8017 11.5779C31.8427 11.5779 31.0667 12.3635 31.0667 13.3317C31.0667 14.2999 31.8425 15.0855 32.8017 15.0855C33.7595 15.0855 34.5367 14.3 34.5367 13.3317C34.5365 12.3635 33.7595 11.5779 32.8017 11.5779Z" fill="#465945"/>
<path d="M39.4937 11.5779C38.5347 11.5779 37.7573 12.3635 37.7573 13.3317C37.7573 14.2999 38.5345 15.0855 39.4937 15.0855C40.4513 15.0855 41.2287 14.3 41.2287 13.3317C41.2287 12.3635 40.4515 11.5779 39.4937 11.5779Z" fill="#465945"/>
<path d="M46.1845 11.5779C45.2267 11.5779 44.4495 12.3635 44.4495 13.3317C44.4495 14.2999 45.2267 15.0855 46.1845 15.0855C47.1436 15.0855 47.9209 14.3 47.9209 13.3317C47.9209 12.3635 47.1435 11.5779 46.1845 11.5779Z" fill="#465945"/>
</svg>
