<svg width="1440" height="1024" viewBox="0 0 1440 1024" fill="none" xmlns="http://www.w3.org/2000/svg">
<rect width="1440" height="1024" fill="#FFFFF0"/>
<path d="M410.704 902V811.632H424.784L430.8 829.68V902H410.704ZM473.04 902L419.792 833.776L424.784 811.632L478.032 879.856L473.04 902ZM473.04 902L467.664 883.952V811.632H487.76V902H473.04ZM548.34 903.536C541.513 903.536 535.199 902.341 529.396 899.952C523.679 897.563 518.644 894.235 514.292 889.968C509.94 885.701 506.569 880.752 504.18 875.12C501.791 869.403 500.596 863.259 500.596 856.688C500.596 850.032 501.791 843.888 504.18 838.256C506.569 832.624 509.897 827.717 514.164 823.536C518.431 819.269 523.423 815.984 529.14 813.68C534.943 811.291 541.257 810.096 548.084 810.096C554.825 810.096 561.055 811.291 566.772 813.68C572.575 815.984 577.609 819.269 581.876 823.536C586.228 827.717 589.599 832.667 591.988 838.384C594.377 844.016 595.572 850.16 595.572 856.816C595.572 863.387 594.377 869.531 591.988 875.248C589.599 880.88 586.271 885.829 582.004 890.096C577.737 894.277 572.703 897.563 566.9 899.952C561.183 902.341 554.996 903.536 548.34 903.536ZM548.084 885.232C553.46 885.232 558.153 884.037 562.164 881.648C566.26 879.259 569.417 875.931 571.636 871.664C573.855 867.312 574.964 862.32 574.964 856.688C574.964 852.421 574.324 848.581 573.044 845.168C571.764 841.669 569.929 838.683 567.54 836.208C565.151 833.648 562.292 831.728 558.964 830.448C555.721 829.083 552.095 828.4 548.084 828.4C542.708 828.4 537.972 829.595 533.876 831.984C529.865 834.288 526.751 837.573 524.532 841.84C522.313 846.021 521.204 850.971 521.204 856.688C521.204 860.955 521.844 864.837 523.124 868.336C524.404 871.835 526.196 874.864 528.5 877.424C530.889 879.899 533.748 881.819 537.076 883.184C540.404 884.549 544.073 885.232 548.084 885.232ZM632.704 902V811.632H652.8V902H632.704ZM670.204 902V811.632H684.54L720.124 867.056H712.828L748.284 811.632H762.748V902H742.652V845.552L746.236 846.448L723.068 882.544H709.756L686.716 846.448L690.172 845.552V902H670.204ZM773.295 902L809.135 811.632H827.311L862.767 902H841.519L814.383 826.992H821.679L794.159 902H773.295ZM793.647 885.616V869.232H842.927V885.616H793.647ZM910.078 903.408C903.507 903.408 897.321 902.213 891.518 899.824C885.801 897.435 880.809 894.149 876.542 889.968C872.275 885.701 868.905 880.752 866.43 875.12C864.041 869.403 862.846 863.259 862.846 856.688C862.846 850.117 864.083 844.016 866.558 838.384C869.033 832.752 872.446 827.845 876.798 823.664C881.235 819.397 886.398 816.112 892.286 813.808C898.174 811.419 904.489 810.224 911.23 810.224C918.995 810.224 926.035 811.632 932.35 814.448C938.75 817.264 944.041 821.147 948.222 826.096L934.526 839.792C931.625 836.037 928.211 833.221 924.286 831.344C920.361 829.467 915.923 828.528 910.974 828.528C905.683 828.528 900.947 829.723 896.766 832.112C892.585 834.416 889.299 837.701 886.91 841.968C884.606 846.149 883.454 851.056 883.454 856.688C883.454 862.32 884.606 867.269 886.91 871.536C889.214 875.803 892.371 879.131 896.382 881.52C900.393 883.909 905.001 885.104 910.206 885.104C915.497 885.104 919.977 884.123 923.646 882.16C927.401 880.112 930.259 877.211 932.222 873.456C934.27 869.616 935.294 864.965 935.294 859.504L948.606 868.464L908.286 867.824V850.8H955.774V853.744C955.774 864.581 953.811 873.712 949.886 881.136C946.046 888.475 940.67 894.021 933.758 897.776C926.931 901.531 919.038 903.408 910.078 903.408ZM967.954 902V811.632H988.05V902H967.954ZM983.314 902V884.592H1032.85V902H983.314ZM983.314 864.24V847.472H1028.37V864.24H983.314ZM983.314 828.912V811.632H1032.21V828.912H983.314Z" fill="#465945"/>
<rect x="200" y="139" width="1040" height="576.25" rx="10" stroke="#465945" stroke-width="20"/>
<circle cx="399.35" cy="285.35" r="29.75" stroke="#465945" stroke-width="20"/>
<path d="M199.275 656.35L469.991 429.275C477.415 423.048 488.236 423.038 495.671 429.253L586.796 505.426C594.775 512.096 606.533 511.538 613.845 504.143L804.313 311.505C811.552 304.184 823.166 303.554 831.153 310.05L1240.72 643.1" stroke="#465945" stroke-width="20" stroke-linecap="round"/>
</svg>
