<svg width="140" height="96" viewBox="0 0 140 96" fill="none" xmlns="http://www.w3.org/2000/svg">
<path d="M90.5592 0.0032959H5.33203C2.40105 0.0032959 0 2.40435 0 5.33943V75.2413C0 78.1722 2.40105 80.5733 5.33203 80.5733H30.0612V90.8871H23.1098V95.9971H72.7858V90.8871H65.8301V80.5733H90.5592C93.4902 80.5733 95.8913 78.1722 95.8913 75.2413V5.33943C95.8913 2.40435 93.4899 0.0032959 90.5592 0.0032959ZM88.9528 71.5072H6.9341V6.9374H88.9525L88.9528 71.5072Z" fill="#465945"/>
<path d="M134.557 0.0032959H107.042C104.039 0.0032959 101.599 2.43853 101.599 5.44634V90.5538C101.599 93.5616 104.039 95.9968 107.042 95.9968H134.557C137.565 95.9968 140 93.5616 140 90.5538V5.44634C140 2.43853 137.565 0.0032959 134.557 0.0032959ZM120.8 71.9986C117.356 71.9986 114.562 69.2043 114.562 65.7606C114.562 62.3129 117.356 59.5186 120.8 59.5186C124.243 59.5186 127.042 62.3129 127.042 65.7606C127.042 69.2043 124.243 71.9986 120.8 71.9986ZM130.643 33.1234H111.443V29.2824H130.643V33.1234ZM130.643 21.6005H111.443V17.7639H130.643V21.6005Z" fill="#465945"/>
</svg>
