<svg width="140" height="140" viewBox="0 0 140 140" fill="none" xmlns="http://www.w3.org/2000/svg">
<path d="M90.5592 22.0033H5.33203C2.40105 22.0033 0 24.4044 0 27.3394V97.2413C0 100.172 2.40105 102.573 5.33203 102.573H30.0612V112.887H23.1098V117.997H72.7858V112.887H65.8301V102.573H90.5592C93.4902 102.573 95.8913 100.172 95.8913 97.2413V27.3394C95.8913 24.4044 93.4899 22.0033 90.5592 22.0033ZM88.9528 93.5072H6.9341V28.9374H88.9525L88.9528 93.5072Z" fill="#465945"/>
<path d="M134.557 22.0033H107.042C104.039 22.0033 101.599 24.4385 101.599 27.4463V112.554C101.599 115.562 104.039 117.997 107.042 117.997H134.557C137.565 117.997 140 115.562 140 112.554V27.4463C140 24.4385 137.565 22.0033 134.557 22.0033ZM120.8 93.9986C117.356 93.9986 114.562 91.2043 114.562 87.7606C114.562 84.3129 117.356 81.5186 120.8 81.5186C124.243 81.5186 127.042 84.3129 127.042 87.7606C127.042 91.2043 124.243 93.9986 120.8 93.9986ZM130.643 55.1234H111.443V51.2824H130.643V55.1234ZM130.643 43.6005H111.443V39.7639H130.643V43.6005Z" fill="#465945"/>
</svg>
