<svg width="88" height="88" viewBox="0 0 88 88" fill="none" xmlns="http://www.w3.org/2000/svg">
<path d="M13.9974 14.4416C17.9859 14.4416 21.2173 11.2075 21.2173 7.2215C21.2173 3.23142 17.9859 0 13.9974 0C10.0071 0 6.77588 3.23142 6.77588 7.2215C6.77588 11.2075 10.0071 14.4416 13.9974 14.4416Z" fill="#465945"/>
<path d="M38.5285 36.4527C38.5285 36.3056 38.5041 36.1652 38.4854 36.0234L49.2702 28.196C49.9477 27.7033 50.1004 26.7504 49.6076 26.0713C49.3216 25.6786 48.8613 25.4436 48.3752 25.4436C48.0526 25.4436 47.745 25.5449 47.483 25.7339L36.6766 33.5776C36.2742 33.3941 35.8328 33.2847 35.3617 33.2847H29.4874L28.0619 25.1685C27.279 21.076 25.6364 17.8621 22.1377 17.8621H7.30486C3.80634 17.8621 0 21.6684 0 25.1685V49.4377C0 51.1871 1.41728 52.6057 3.16662 52.6057C4.02789 52.6057 3.16662 52.6057 5.37762 52.6057L6.58161 73.3036C6.58161 75.165 8.09205 76.6741 9.95345 76.6741C11.3491 76.6741 14.8344 76.6741 16.6958 76.6741C18.5572 76.6741 20.0662 75.165 20.0662 73.3036L21.6482 32.3063H21.7277L22.6335 36.3056C22.9333 38.2129 24.5745 39.6194 26.5048 39.6194H35.3622C37.1112 39.6194 38.5285 38.2021 38.5285 36.4527ZM11.692 31.9537V20.417H15.8386V31.9537L13.6357 34.5522L11.692 31.9537Z" fill="#465945"/>
<path d="M32.7124 2.49597V28.8614H36.8591V6.64246H83.8535V46.2658H36.8591V41.2784H32.7124V50.4123H88.0001V2.49597H32.7124Z" fill="#465945"/>
<path d="M53.5923 61.1272C53.5923 57.8958 50.9738 55.2784 47.7437 55.2784C44.5123 55.2784 41.8938 57.8958 41.8938 61.1272C41.8938 64.3558 44.5123 66.9757 47.7437 66.9757C50.9736 66.9757 53.5923 64.3557 53.5923 61.1272Z" fill="#465945"/>
<path d="M47.7435 70.1086C43.574 70.1086 40.0322 72.8447 38.6716 76.6741H56.8156C55.4551 72.8445 51.9131 70.1086 47.7435 70.1086Z" fill="#465945"/>
<path d="M78.8172 61.1272C78.8172 57.8958 76.1986 55.2784 72.9686 55.2784C69.7372 55.2784 67.1187 57.8958 67.1187 61.1272C67.1187 64.3558 69.7372 66.9757 72.9686 66.9757C76.1986 66.9757 78.8172 64.3557 78.8172 61.1272Z" fill="#465945"/>
<path d="M72.9686 70.1086C68.799 70.1086 65.2572 72.8447 63.8965 76.6741H82.0405C80.6799 72.8445 77.1381 70.1086 72.9686 70.1086Z" fill="#465945"/>
</svg>
