<svg width="120" height="120" viewBox="0 0 120 120" fill="none" xmlns="http://www.w3.org/2000/svg">
<path d="M0 11.25V108.75C0 114.963 5.03719 120 11.25 120H108.75C114.963 120 120 114.963 120 108.75V11.25C120 5.03719 114.963 0 108.75 0H11.25C5.03719 0 0 5.03719 0 11.25ZM20.235 12.6562C20.235 15.1153 18.2409 17.1094 15.7819 17.1094C13.3228 17.1094 11.3287 15.1153 11.3287 12.6562C11.3287 10.1972 13.3228 8.20312 15.7819 8.20312C18.2409 8.20312 20.235 10.1972 20.235 12.6562ZM36.7584 12.6562C36.7584 15.1153 34.7644 17.1094 32.3053 17.1094C29.8463 17.1094 27.8522 15.1153 27.8522 12.6562C27.8522 10.1972 29.8463 8.20312 32.3053 8.20312C34.7644 8.20312 36.7584 10.1972 36.7584 12.6562ZM53.2819 12.6562C53.2819 15.1153 51.2878 17.1094 48.8288 17.1094C46.3697 17.1094 44.3756 15.1153 44.3756 12.6562C44.3756 10.1972 46.3697 8.20312 48.8288 8.20312C51.2878 8.20312 53.2819 10.1972 53.2819 12.6562ZM9.375 24.375H110.625V108.75C110.625 109.783 109.785 110.625 108.75 110.625H11.25C10.2155 110.625 9.375 109.783 9.375 108.75V24.375Z" fill="#465945"/>
<path d="M97.5002 45H61.8752V52.5H97.5002V45Z" fill="#465945"/>
<path d="M97.4998 82.5H20.6248V90H97.4998V82.5Z" fill="#465945"/>
<path d="M48.7498 45H20.6248V73.125H48.7498V45Z" fill="#465945"/>
<path d="M66.3185 71.25H61.8752V63.75H97.5002V71.25H70.0685H66.3185Z" fill="#465945"/>
</svg>
